<?xml version="1.0" encoding="utf-8" standalone="no"?>
<!DOCTYPE svg PUBLIC "-//W3C//DTD SVG 1.1//EN"
  "http://www.w3.org/Graphics/SVG/1.1/DTD/svg11.dtd">
<svg xmlns:xlink="http://www.w3.org/1999/xlink" width="633.568pt" height="453.205187pt" viewBox="0 0 633.568 453.205187" xmlns="http://www.w3.org/2000/svg" version="1.1">
 <metadata>
  <rdf:RDF xmlns:dc="http://purl.org/dc/elements/1.1/" xmlns:cc="http://creativecommons.org/ns#" xmlns:rdf="http://www.w3.org/1999/02/22-rdf-syntax-ns#">
   <cc:Work>
    <dc:type rdf:resource="http://purl.org/dc/dcmitype/StillImage"/>
    <dc:date>2026-05-22T00:20:38.192953</dc:date>
    <dc:format>image/svg+xml</dc:format>
    <dc:creator>
     <cc:Agent>
      <dc:title>Matplotlib v3.10.0, https://matplotlib.org/</dc:title>
     </cc:Agent>
    </dc:creator>
   </cc:Work>
  </rdf:RDF>
 </metadata>
 <defs>
  <style type="text/css">*{stroke-linejoin: round; stroke-linecap: butt}</style>
 </defs>
 <g id="figure_1">
  <g id="patch_1">
   <path d="M 0 453.205187 
L 633.568 453.205187 
L 633.568 0 
L 0 0 
z
" style="fill: #ffffff"/>
  </g>
  <g id="axes_1">
   <g id="patch_2">
    <path d="M 32.72 420.485187 
L 626.368 420.485187 
L 626.368 36.597187 
L 32.72 36.597187 
z
" style="fill: #ffffff"/>
   </g>
   <g id="matplotlib.axis_1">
    <g id="xtick_1">
     <g id="line2d_1">
      <path d="M 92.0848 420.485187 
L 92.0848 36.597187 
" clip-path="url(#p93925e7559)" style="fill: none; stroke: #cccccc; stroke-linecap: round"/>
     </g>
     <g id="line2d_2">
      <defs>
       <path id="ma9ca8e5d6a" d="M 0 0 
L 0 6 
" style="stroke: #808080; stroke-width: 1.25"/>
      </defs>
      <g>
       <use xlink:href="#ma9ca8e5d6a" x="92.0848" y="420.485187" style="fill: #808080; stroke: #808080; stroke-width: 1.25"/>
      </g>
     </g>
    </g>
    <g id="xtick_2">
     <g id="line2d_3">
      <path d="M 210.8144 420.485187 
L 210.8144 36.597187 
" clip-path="url(#p93925e7559)" style="fill: none; stroke: #cccccc; stroke-linecap: round"/>
     </g>
     <g id="line2d_4">
      <g>
       <use xlink:href="#ma9ca8e5d6a" x="210.8144" y="420.485187" style="fill: #808080; stroke: #808080; stroke-width: 1.25"/>
      </g>
     </g>
    </g>
    <g id="xtick_3">
     <g id="line2d_5">
      <path d="M 329.544 420.485187 
L 329.544 36.597187 
" clip-path="url(#p93925e7559)" style="fill: none; stroke: #cccccc; stroke-linecap: round"/>
     </g>
     <g id="line2d_6">
      <g>
       <use xlink:href="#ma9ca8e5d6a" x="329.544" y="420.485187" style="fill: #808080; stroke: #808080; stroke-width: 1.25"/>
      </g>
     </g>
    </g>
    <g id="xtick_4">
     <g id="line2d_7">
      <path d="M 448.2736 420.485187 
L 448.2736 36.597187 
" clip-path="url(#p93925e7559)" style="fill: none; stroke: #cccccc; stroke-linecap: round"/>
     </g>
     <g id="line2d_8">
      <g>
       <use xlink:href="#ma9ca8e5d6a" x="448.2736" y="420.485187" style="fill: #808080; stroke: #808080; stroke-width: 1.25"/>
      </g>
     </g>
    </g>
    <g id="xtick_5">
     <g id="line2d_9">
      <path d="M 567.0032 420.485187 
L 567.0032 36.597187 
" clip-path="url(#p93925e7559)" style="fill: none; stroke: #cccccc; stroke-linecap: round"/>
     </g>
     <g id="line2d_10">
      <g>
       <use xlink:href="#ma9ca8e5d6a" x="567.0032" y="420.485187" style="fill: #808080; stroke: #808080; stroke-width: 1.25"/>
      </g>
     </g>
    </g>
    <g id="text_1">
     <!-- Parámetro de la red $\theta_1$ -->
     <g style="fill: #262626" transform="translate(238.264 442.677687) scale(0.16 -0.16)">
      <defs>
       <path id="DejaVuSans-50" d="M 1259 4147 
L 1259 2394 
L 2053 2394 
Q 2494 2394 2734 2622 
Q 2975 2850 2975 3272 
Q 2975 3691 2734 3919 
Q 2494 4147 2053 4147 
L 1259 4147 
z
M 628 4666 
L 2053 4666 
Q 2838 4666 3239 4311 
Q 3641 3956 3641 3272 
Q 3641 2581 3239 2228 
Q 2838 1875 2053 1875 
L 1259 1875 
L 1259 0 
L 628 0 
L 628 4666 
z
" transform="scale(0.015625)"/>
       <path id="DejaVuSans-61" d="M 2194 1759 
Q 1497 1759 1228 1600 
Q 959 1441 959 1056 
Q 959 750 1161 570 
Q 1363 391 1709 391 
Q 2188 391 2477 730 
Q 2766 1069 2766 1631 
L 2766 1759 
L 2194 1759 
z
M 3341 1997 
L 3341 0 
L 2766 0 
L 2766 531 
Q 2569 213 2275 61 
Q 1981 -91 1556 -91 
Q 1019 -91 701 211 
Q 384 513 384 1019 
Q 384 1609 779 1909 
Q 1175 2209 1959 2209 
L 2766 2209 
L 2766 2266 
Q 2766 2663 2505 2880 
Q 2244 3097 1772 3097 
Q 1472 3097 1187 3025 
Q 903 2953 641 2809 
L 641 3341 
Q 956 3463 1253 3523 
Q 1550 3584 1831 3584 
Q 2591 3584 2966 3190 
Q 3341 2797 3341 1997 
z
" transform="scale(0.015625)"/>
       <path id="DejaVuSans-72" d="M 2631 2963 
Q 2534 3019 2420 3045 
Q 2306 3072 2169 3072 
Q 1681 3072 1420 2755 
Q 1159 2438 1159 1844 
L 1159 0 
L 581 0 
L 581 3500 
L 1159 3500 
L 1159 2956 
Q 1341 3275 1631 3429 
Q 1922 3584 2338 3584 
Q 2397 3584 2469 3576 
Q 2541 3569 2628 3553 
L 2631 2963 
z
" transform="scale(0.015625)"/>
       <path id="DejaVuSans-e1" d="M 2194 1759 
Q 1497 1759 1228 1600 
Q 959 1441 959 1056 
Q 959 750 1161 570 
Q 1363 391 1709 391 
Q 2188 391 2477 730 
Q 2766 1069 2766 1631 
L 2766 1759 
L 2194 1759 
z
M 3341 1997 
L 3341 0 
L 2766 0 
L 2766 531 
Q 2569 213 2275 61 
Q 1981 -91 1556 -91 
Q 1019 -91 701 211 
Q 384 513 384 1019 
Q 384 1609 779 1909 
Q 1175 2209 1959 2209 
L 2766 2209 
L 2766 2266 
Q 2766 2663 2505 2880 
Q 2244 3097 1772 3097 
Q 1472 3097 1187 3025 
Q 903 2953 641 2809 
L 641 3341 
Q 956 3463 1253 3523 
Q 1550 3584 1831 3584 
Q 2591 3584 2966 3190 
Q 3341 2797 3341 1997 
z
M 2290 5119 
L 2912 5119 
L 1894 3944 
L 1415 3944 
L 2290 5119 
z
" transform="scale(0.015625)"/>
       <path id="DejaVuSans-6d" d="M 3328 2828 
Q 3544 3216 3844 3400 
Q 4144 3584 4550 3584 
Q 5097 3584 5394 3201 
Q 5691 2819 5691 2113 
L 5691 0 
L 5113 0 
L 5113 2094 
Q 5113 2597 4934 2840 
Q 4756 3084 4391 3084 
Q 3944 3084 3684 2787 
Q 3425 2491 3425 1978 
L 3425 0 
L 2847 0 
L 2847 2094 
Q 2847 2600 2669 2842 
Q 2491 3084 2119 3084 
Q 1678 3084 1418 2786 
Q 1159 2488 1159 1978 
L 1159 0 
L 581 0 
L 581 3500 
L 1159 3500 
L 1159 2956 
Q 1356 3278 1631 3431 
Q 1906 3584 2284 3584 
Q 2666 3584 2933 3390 
Q 3200 3197 3328 2828 
z
" transform="scale(0.015625)"/>
       <path id="DejaVuSans-65" d="M 3597 1894 
L 3597 1613 
L 953 1613 
Q 991 1019 1311 708 
Q 1631 397 2203 397 
Q 2534 397 2845 478 
Q 3156 559 3463 722 
L 3463 178 
Q 3153 47 2828 -22 
Q 2503 -91 2169 -91 
Q 1331 -91 842 396 
Q 353 884 353 1716 
Q 353 2575 817 3079 
Q 1281 3584 2069 3584 
Q 2775 3584 3186 3129 
Q 3597 2675 3597 1894 
z
M 3022 2063 
Q 3016 2534 2758 2815 
Q 2500 3097 2075 3097 
Q 1594 3097 1305 2825 
Q 1016 2553 972 2059 
L 3022 2063 
z
" transform="scale(0.015625)"/>
       <path id="DejaVuSans-74" d="M 1172 4494 
L 1172 3500 
L 2356 3500 
L 2356 3053 
L 1172 3053 
L 1172 1153 
Q 1172 725 1289 603 
Q 1406 481 1766 481 
L 2356 481 
L 2356 0 
L 1766 0 
Q 1100 0 847 248 
Q 594 497 594 1153 
L 594 3053 
L 172 3053 
L 172 3500 
L 594 3500 
L 594 4494 
L 1172 4494 
z
" transform="scale(0.015625)"/>
       <path id="DejaVuSans-6f" d="M 1959 3097 
Q 1497 3097 1228 2736 
Q 959 2375 959 1747 
Q 959 1119 1226 758 
Q 1494 397 1959 397 
Q 2419 397 2687 759 
Q 2956 1122 2956 1747 
Q 2956 2369 2687 2733 
Q 2419 3097 1959 3097 
z
M 1959 3584 
Q 2709 3584 3137 3096 
Q 3566 2609 3566 1747 
Q 3566 888 3137 398 
Q 2709 -91 1959 -91 
Q 1206 -91 779 398 
Q 353 888 353 1747 
Q 353 2609 779 3096 
Q 1206 3584 1959 3584 
z
" transform="scale(0.015625)"/>
       <path id="DejaVuSans-20" transform="scale(0.015625)"/>
       <path id="DejaVuSans-64" d="M 2906 2969 
L 2906 4863 
L 3481 4863 
L 3481 0 
L 2906 0 
L 2906 525 
Q 2725 213 2448 61 
Q 2172 -91 1784 -91 
Q 1150 -91 751 415 
Q 353 922 353 1747 
Q 353 2572 751 3078 
Q 1150 3584 1784 3584 
Q 2172 3584 2448 3432 
Q 2725 3281 2906 2969 
z
M 947 1747 
Q 947 1113 1208 752 
Q 1469 391 1925 391 
Q 2381 391 2643 752 
Q 2906 1113 2906 1747 
Q 2906 2381 2643 2742 
Q 2381 3103 1925 3103 
Q 1469 3103 1208 2742 
Q 947 2381 947 1747 
z
" transform="scale(0.015625)"/>
       <path id="DejaVuSans-6c" d="M 603 4863 
L 1178 4863 
L 1178 0 
L 603 0 
L 603 4863 
z
" transform="scale(0.015625)"/>
       <path id="DejaVuSans-Oblique-3b8" d="M 2913 2219 
L 925 2219 
Q 791 1284 928 888 
Q 1100 400 1566 400 
Q 2034 400 2391 891 
Q 2703 1322 2913 2219 
z
M 3009 2750 
Q 3094 3638 2984 3950 
Q 2813 4444 2353 4444 
Q 1875 4444 1525 3956 
Q 1250 3563 1034 2750 
L 3009 2750 
z
M 2444 4913 
Q 3194 4913 3494 4250 
Q 3794 3591 3566 2422 
Q 3341 1256 2781 594 
Q 2225 -72 1475 -72 
Q 722 -72 425 594 
Q 128 1256 353 2422 
Q 581 3591 1134 4250 
Q 1691 4913 2444 4913 
z
" transform="scale(0.015625)"/>
       <path id="DejaVuSans-31" d="M 794 531 
L 1825 531 
L 1825 4091 
L 703 3866 
L 703 4441 
L 1819 4666 
L 2450 4666 
L 2450 531 
L 3481 531 
L 3481 0 
L 794 0 
L 794 531 
z
" transform="scale(0.015625)"/>
      </defs>
      <use xlink:href="#DejaVuSans-50" transform="translate(0 0.015625)"/>
      <use xlink:href="#DejaVuSans-61" transform="translate(60.302734 0.015625)"/>
      <use xlink:href="#DejaVuSans-72" transform="translate(121.582031 0.015625)"/>
      <use xlink:href="#DejaVuSans-e1" transform="translate(162.695312 0.015625)"/>
      <use xlink:href="#DejaVuSans-6d" transform="translate(223.974609 0.015625)"/>
      <use xlink:href="#DejaVuSans-65" transform="translate(321.386719 0.015625)"/>
      <use xlink:href="#DejaVuSans-74" transform="translate(382.910156 0.015625)"/>
      <use xlink:href="#DejaVuSans-72" transform="translate(422.119141 0.015625)"/>
      <use xlink:href="#DejaVuSans-6f" transform="translate(463.232422 0.015625)"/>
      <use xlink:href="#DejaVuSans-20" transform="translate(524.414062 0.015625)"/>
      <use xlink:href="#DejaVuSans-64" transform="translate(556.201172 0.015625)"/>
      <use xlink:href="#DejaVuSans-65" transform="translate(619.677734 0.015625)"/>
      <use xlink:href="#DejaVuSans-20" transform="translate(681.201172 0.015625)"/>
      <use xlink:href="#DejaVuSans-6c" transform="translate(712.988281 0.015625)"/>
      <use xlink:href="#DejaVuSans-61" transform="translate(740.771484 0.015625)"/>
      <use xlink:href="#DejaVuSans-20" transform="translate(802.050781 0.015625)"/>
      <use xlink:href="#DejaVuSans-72" transform="translate(833.837891 0.015625)"/>
      <use xlink:href="#DejaVuSans-65" transform="translate(874.951172 0.015625)"/>
      <use xlink:href="#DejaVuSans-64" transform="translate(936.474609 0.015625)"/>
      <use xlink:href="#DejaVuSans-20" transform="translate(999.951172 0.015625)"/>
      <use xlink:href="#DejaVuSans-Oblique-3b8" transform="translate(1031.738281 0.015625)"/>
      <use xlink:href="#DejaVuSans-31" transform="translate(1092.919922 -16.390625) scale(0.7)"/>
     </g>
    </g>
   </g>
   <g id="matplotlib.axis_2">
    <g id="ytick_1">
     <g id="line2d_11">
      <path d="M 32.72 382.096387 
L 626.368 382.096387 
" clip-path="url(#p93925e7559)" style="fill: none; stroke: #cccccc; stroke-linecap: round"/>
     </g>
     <g id="line2d_12">
      <defs>
       <path id="m91e23c564b" d="M 0 0 
L -6 0 
" style="stroke: #808080; stroke-width: 1.25"/>
      </defs>
      <g>
       <use xlink:href="#m91e23c564b" x="32.72" y="382.096387" style="fill: #808080; stroke: #808080; stroke-width: 1.25"/>
      </g>
     </g>
    </g>
    <g id="ytick_2">
     <g id="line2d_13">
      <path d="M 32.72 305.318787 
L 626.368 305.318787 
" clip-path="url(#p93925e7559)" style="fill: none; stroke: #cccccc; stroke-linecap: round"/>
     </g>
     <g id="line2d_14">
      <g>
       <use xlink:href="#m91e23c564b" x="32.72" y="305.318787" style="fill: #808080; stroke: #808080; stroke-width: 1.25"/>
      </g>
     </g>
    </g>
    <g id="ytick_3">
     <g id="line2d_15">
      <path d="M 32.72 228.541187 
L 626.368 228.541187 
" clip-path="url(#p93925e7559)" style="fill: none; stroke: #cccccc; stroke-linecap: round"/>
     </g>
     <g id="line2d_16">
      <g>
       <use xlink:href="#m91e23c564b" x="32.72" y="228.541187" style="fill: #808080; stroke: #808080; stroke-width: 1.25"/>
      </g>
     </g>
    </g>
    <g id="ytick_4">
     <g id="line2d_17">
      <path d="M 32.72 151.763587 
L 626.368 151.763587 
" clip-path="url(#p93925e7559)" style="fill: none; stroke: #cccccc; stroke-linecap: round"/>
     </g>
     <g id="line2d_18">
      <g>
       <use xlink:href="#m91e23c564b" x="32.72" y="151.763587" style="fill: #808080; stroke: #808080; stroke-width: 1.25"/>
      </g>
     </g>
    </g>
    <g id="ytick_5">
     <g id="line2d_19">
      <path d="M 32.72 74.985987 
L 626.368 74.985987 
" clip-path="url(#p93925e7559)" style="fill: none; stroke: #cccccc; stroke-linecap: round"/>
     </g>
     <g id="line2d_20">
      <g>
       <use xlink:href="#m91e23c564b" x="32.72" y="74.985987" style="fill: #808080; stroke: #808080; stroke-width: 1.25"/>
      </g>
     </g>
    </g>
    <g id="text_2">
     <!-- Parámetro de la red $\theta_2$ -->
     <g style="fill: #262626" transform="translate(19.3925 319.821187) rotate(-90) scale(0.16 -0.16)">
      <defs>
       <path id="DejaVuSans-32" d="M 1228 531 
L 3431 531 
L 3431 0 
L 469 0 
L 469 531 
Q 828 903 1448 1529 
Q 2069 2156 2228 2338 
Q 2531 2678 2651 2914 
Q 2772 3150 2772 3378 
Q 2772 3750 2511 3984 
Q 2250 4219 1831 4219 
Q 1534 4219 1204 4116 
Q 875 4013 500 3803 
L 500 4441 
Q 881 4594 1212 4672 
Q 1544 4750 1819 4750 
Q 2544 4750 2975 4387 
Q 3406 4025 3406 3419 
Q 3406 3131 3298 2873 
Q 3191 2616 2906 2266 
Q 2828 2175 2409 1742 
Q 1991 1309 1228 531 
z
" transform="scale(0.015625)"/>
      </defs>
      <use xlink:href="#DejaVuSans-50" transform="translate(0 0.015625)"/>
      <use xlink:href="#DejaVuSans-61" transform="translate(60.302734 0.015625)"/>
      <use xlink:href="#DejaVuSans-72" transform="translate(121.582031 0.015625)"/>
      <use xlink:href="#DejaVuSans-e1" transform="translate(162.695312 0.015625)"/>
      <use xlink:href="#DejaVuSans-6d" transform="translate(223.974609 0.015625)"/>
      <use xlink:href="#DejaVuSans-65" transform="translate(321.386719 0.015625)"/>
      <use xlink:href="#DejaVuSans-74" transform="translate(382.910156 0.015625)"/>
      <use xlink:href="#DejaVuSans-72" transform="translate(422.119141 0.015625)"/>
      <use xlink:href="#DejaVuSans-6f" transform="translate(463.232422 0.015625)"/>
      <use xlink:href="#DejaVuSans-20" transform="translate(524.414062 0.015625)"/>
      <use xlink:href="#DejaVuSans-64" transform="translate(556.201172 0.015625)"/>
      <use xlink:href="#DejaVuSans-65" transform="translate(619.677734 0.015625)"/>
      <use xlink:href="#DejaVuSans-20" transform="translate(681.201172 0.015625)"/>
      <use xlink:href="#DejaVuSans-6c" transform="translate(712.988281 0.015625)"/>
      <use xlink:href="#DejaVuSans-61" transform="translate(740.771484 0.015625)"/>
      <use xlink:href="#DejaVuSans-20" transform="translate(802.050781 0.015625)"/>
      <use xlink:href="#DejaVuSans-72" transform="translate(833.837891 0.015625)"/>
      <use xlink:href="#DejaVuSans-65" transform="translate(874.951172 0.015625)"/>
      <use xlink:href="#DejaVuSans-64" transform="translate(936.474609 0.015625)"/>
      <use xlink:href="#DejaVuSans-20" transform="translate(999.951172 0.015625)"/>
      <use xlink:href="#DejaVuSans-Oblique-3b8" transform="translate(1031.738281 0.015625)"/>
      <use xlink:href="#DejaVuSans-32" transform="translate(1092.919922 -16.390625) scale(0.7)"/>
     </g>
    </g>
   </g>
   <g id="QuadContourSet_1">
    <path clip-path="url(#p93925e7559)" style="fill: none; stroke: #ffffff; stroke-opacity: 0.5; stroke-width: 1.5"/>
    <path d="M 290.567111 293.079079 
L 284.570667 292.435274 
L 272.577778 290.78727 
L 260.584889 288.7515 
L 254.588444 287.517759 
L 242.595556 284.722892 
L 230.602667 281.288396 
L 224.606222 279.290764 
L 218.262615 277.011895 
L 208.985484 273.134238 
L 206.616889 272.020293 
L 200.620444 269.039433 
L 194.206856 265.378925 
L 188.352719 261.501268 
L 182.631111 256.981029 
L 179.129188 253.745955 
L 175.573757 249.868299 
L 172.690851 245.990642 
L 170.393923 242.112985 
L 168.728244 238.235329 
L 167.617791 234.357672 
L 167.062565 230.480016 
L 167.062565 226.602359 
L 167.617791 222.724703 
L 168.728244 218.847046 
L 170.638222 214.542847 
L 172.690851 211.091733 
L 175.573757 207.214076 
L 179.129188 203.33642 
L 183.355681 199.458763 
L 188.627556 195.391532 
L 194.624 191.45528 
L 201.020207 187.825794 
L 208.985484 183.948137 
L 212.613333 182.384149 
L 218.609778 179.939237 
L 229.332831 176.192824 
L 236.599111 174.021336 
L 242.766883 172.315167 
L 254.588444 169.564616 
L 260.584889 168.330875 
L 272.577778 166.295105 
L 284.570667 164.647101 
L 290.567111 164.003296 
L 302.56 162.999668 
L 314.552889 162.360995 
L 326.545778 162.087278 
L 338.538667 162.178517 
L 350.531556 162.634712 
L 362.524444 163.455863 
L 374.517333 164.647101 
L 386.510222 166.295105 
L 398.503111 168.330875 
L 404.499556 169.564616 
L 416.492444 172.359483 
L 428.485333 175.793979 
L 434.481778 177.791611 
L 440.825385 180.07048 
L 450.102516 183.948137 
L 452.471111 185.062082 
L 458.467556 188.042942 
L 464.881144 191.70345 
L 470.735281 195.581107 
L 476.456889 200.101346 
L 479.958812 203.33642 
L 483.514243 207.214076 
L 486.397149 211.091733 
L 488.694077 214.96939 
L 490.359756 218.847046 
L 491.470209 222.724703 
L 492.025435 226.602359 
L 492.025435 230.480016 
L 491.470209 234.357672 
L 490.359756 238.235329 
L 488.449778 242.539528 
L 486.397149 245.990642 
L 483.514243 249.868299 
L 479.958812 253.745955 
L 475.732319 257.623612 
L 470.460444 261.690843 
L 464.464 265.627095 
L 458.067793 269.256581 
L 450.102516 273.134238 
L 446.474667 274.698226 
L 440.478222 277.143138 
L 429.755169 280.889551 
L 422.488889 283.061039 
L 416.321117 284.767208 
L 404.499556 287.517759 
L 398.503111 288.7515 
L 386.510222 290.78727 
L 374.517333 292.435274 
L 368.520889 293.079079 
L 356.528 294.082707 
L 344.535111 294.72138 
L 332.542222 294.995097 
L 320.549333 294.903858 
L 308.556444 294.447663 
L 296.563556 293.626512 
L 290.567111 293.079079 
L 290.567111 293.079079 
" clip-path="url(#p93925e7559)" style="fill: none; stroke: #f5f5f5; stroke-opacity: 0.5; stroke-width: 1.5"/>
    <path d="M 278.574222 320.224338 
L 272.819301 319.666117 
L 272.577778 319.641671 
L 266.581333 318.967296 
L 260.584889 318.225483 
L 254.588444 317.416233 
L 248.592 316.539545 
L 243.821614 315.78846 
L 242.595556 315.586646 
L 236.599111 314.529103 
L 230.602667 313.401058 
L 224.606222 312.202509 
L 223.227873 311.910804 
L 218.609778 310.886918 
L 212.613333 309.483575 
L 206.725574 308.033147 
L 206.616889 308.005034 
L 200.620444 306.376418 
L 194.624 304.670249 
L 192.893504 304.155491 
L 188.627556 302.81974 
L 182.631111 300.860503 
L 180.919126 300.277834 
L 176.634667 298.73862 
L 170.638222 296.498196 
L 170.385594 296.400177 
L 164.641778 294.040509 
L 161.078712 292.522521 
L 158.645333 291.421024 
L 152.723844 288.644864 
L 152.648889 288.60738 
L 146.652444 285.505255 
L 145.271811 284.767208 
L 140.656 282.123477 
L 138.568956 280.889551 
L 134.659556 278.400394 
L 132.5449 277.011895 
L 128.663111 274.25068 
L 127.13975 273.134238 
L 122.666667 269.557981 
L 122.300455 269.256581 
L 118.017281 265.378925 
L 116.670222 264.023899 
L 114.232085 261.501268 
L 110.900727 257.623612 
L 110.673778 257.321708 
L 108.058437 253.745955 
L 105.627446 249.868299 
L 104.677333 248.049678 
L 103.629928 245.990642 
L 102.051916 242.112985 
L 100.868408 238.235329 
L 100.079402 234.357672 
L 99.684899 230.480016 
L 99.684899 226.602359 
L 100.079402 222.724703 
L 100.868408 218.847046 
L 102.051916 214.96939 
L 103.629928 211.091733 
L 104.677333 209.032697 
L 105.627446 207.214076 
L 108.058437 203.33642 
L 110.673778 199.760667 
L 110.900727 199.458763 
L 114.232085 195.581107 
L 116.670222 193.058476 
L 118.017281 191.70345 
L 122.300455 187.825794 
L 122.666667 187.524394 
L 127.13975 183.948137 
L 128.663111 182.831695 
L 132.5449 180.07048 
L 134.659556 178.681981 
L 138.568956 176.192824 
L 140.656 174.958898 
L 145.271811 172.315167 
L 146.652444 171.57712 
L 152.648889 168.474995 
L 152.723844 168.437511 
L 158.645333 165.661351 
L 161.078712 164.559854 
L 164.641778 163.041866 
L 170.385594 160.682198 
L 170.638222 160.584179 
L 176.634667 158.343755 
L 180.919126 156.804541 
L 182.631111 156.221872 
L 188.627556 154.262635 
L 192.893504 152.926884 
L 194.624 152.412126 
L 200.620444 150.705957 
L 206.616889 149.077341 
L 206.725574 149.049228 
L 212.613333 147.5988 
L 218.609778 146.195457 
L 223.227873 145.171571 
L 224.606222 144.879866 
L 230.602667 143.681317 
L 236.599111 142.553272 
L 242.595556 141.495729 
L 243.821614 141.293915 
L 248.592 140.54283 
L 254.588444 139.666142 
L 260.584889 138.856892 
L 266.581333 138.115079 
L 272.577778 137.440704 
L 272.819301 137.416258 
L 278.574222 136.858037 
L 284.570667 136.341016 
L 290.567111 135.888623 
L 296.563556 135.500857 
L 302.56 135.177719 
L 308.556444 134.919209 
L 314.552889 134.725326 
L 320.549333 134.596071 
L 326.545778 134.531443 
L 332.542222 134.531443 
L 338.538667 134.596071 
L 344.535111 134.725326 
L 350.531556 134.919209 
L 356.528 135.177719 
L 362.524444 135.500857 
L 368.520889 135.888623 
L 374.517333 136.341016 
L 380.513778 136.858037 
L 386.268699 137.416258 
L 386.510222 137.440704 
L 392.506667 138.115079 
L 398.503111 138.856892 
L 404.499556 139.666142 
L 410.496 140.54283 
L 415.266386 141.293915 
L 416.492444 141.495729 
L 422.488889 142.553272 
L 428.485333 143.681317 
L 434.481778 144.879866 
L 435.860127 145.171571 
L 440.478222 146.195457 
L 446.474667 147.5988 
L 452.362426 149.049228 
L 452.471111 149.077341 
L 458.467556 150.705957 
L 464.464 152.412126 
L 466.194496 152.926884 
L 470.460444 154.262635 
L 476.456889 156.221872 
L 478.168874 156.804541 
L 482.453333 158.343755 
L 488.449778 160.584179 
L 488.702406 160.682198 
L 494.446222 163.041866 
L 498.009288 164.559854 
L 500.442667 165.661351 
L 506.364156 168.437511 
L 506.439111 168.474995 
L 512.435556 171.57712 
L 513.816189 172.315167 
L 518.432 174.958898 
L 520.519044 176.192824 
L 524.428444 178.681981 
L 526.5431 180.07048 
L 530.424889 182.831695 
L 531.94825 183.948137 
L 536.421333 187.524394 
L 536.787545 187.825794 
L 541.070719 191.70345 
L 542.417778 193.058476 
L 544.855915 195.581107 
L 548.187273 199.458763 
L 548.414222 199.760667 
L 551.029563 203.33642 
L 553.460554 207.214076 
L 554.410667 209.032697 
L 555.458072 211.091733 
L 557.036084 214.96939 
L 558.219592 218.847046 
L 559.008598 222.724703 
L 559.403101 226.602359 
L 559.403101 230.480016 
L 559.008598 234.357672 
L 558.219592 238.235329 
L 557.036084 242.112985 
L 555.458072 245.990642 
L 554.410667 248.049678 
L 553.460554 249.868299 
L 551.029563 253.745955 
L 548.414222 257.321708 
L 548.187273 257.623612 
L 544.855915 261.501268 
L 542.417778 264.023899 
L 541.070719 265.378925 
L 536.787545 269.256581 
L 536.421333 269.557981 
L 531.94825 273.134238 
L 530.424889 274.25068 
L 526.5431 277.011895 
L 524.428444 278.400394 
L 520.519044 280.889551 
L 518.432 282.123477 
L 513.816189 284.767208 
L 512.435556 285.505255 
L 506.439111 288.60738 
L 506.364156 288.644864 
L 500.442667 291.421024 
L 498.009288 292.522521 
L 494.446222 294.040509 
L 488.702406 296.400177 
L 488.449778 296.498196 
L 482.453333 298.73862 
L 478.168874 300.277834 
L 476.456889 300.860503 
L 470.460444 302.81974 
L 466.194496 304.155491 
L 464.464 304.670249 
L 458.467556 306.376418 
L 452.471111 308.005034 
L 452.362426 308.033147 
L 446.474667 309.483575 
L 440.478222 310.886918 
L 435.860127 311.910804 
L 434.481778 312.202509 
L 428.485333 313.401058 
L 422.488889 314.529103 
L 416.492444 315.586646 
L 415.266386 315.78846 
L 410.496 316.539545 
L 404.499556 317.416233 
L 398.503111 318.225483 
L 392.506667 318.967296 
L 386.510222 319.641671 
L 386.268699 319.666117 
L 380.513778 320.224338 
L 374.517333 320.741359 
L 368.520889 321.193752 
L 362.524444 321.581518 
L 356.528 321.904656 
L 350.531556 322.163166 
L 344.535111 322.357049 
L 338.538667 322.486304 
L 332.542222 322.550932 
L 326.545778 322.550932 
L 320.549333 322.486304 
L 314.552889 322.357049 
L 308.556444 322.163166 
L 302.56 321.904656 
L 296.563556 321.581518 
L 290.567111 321.193752 
L 284.570667 320.741359 
L 278.574222 320.224338 
z
" clip-path="url(#p93925e7559)" style="fill: none; stroke: #e9e9e9; stroke-opacity: 0.5; stroke-width: 1.5"/>
    <path d="M 302.56 343.173763 
L 296.953324 342.932056 
L 296.563556 342.914674 
L 290.567111 342.593764 
L 284.570667 342.21937 
L 278.574222 341.79149 
L 272.577778 341.310126 
L 266.581333 340.775277 
L 260.584889 340.186943 
L 254.588444 339.545124 
L 250.356338 339.0544 
L 248.592 338.842513 
L 242.595556 338.066982 
L 236.599111 337.236056 
L 230.602667 336.349734 
L 224.606222 335.408018 
L 223.21538 335.176743 
L 218.609778 334.382542 
L 212.613333 333.291053 
L 206.616889 332.142118 
L 202.426516 331.299086 
L 200.620444 330.921761 
L 194.624 329.609323 
L 188.627556 328.237229 
L 185.210831 327.42143 
L 182.631111 326.780841 
L 176.634667 325.229778 
L 170.638222 323.616673 
L 170.377266 323.543773 
L 164.641778 321.874765 
L 158.645333 320.065192 
L 157.368504 319.666117 
L 152.648889 318.126856 
L 146.652444 316.103731 
L 145.748142 315.78846 
L 140.656 313.932473 
L 135.282624 311.910804 
L 134.659556 311.665219 
L 128.663111 309.227835 
L 125.810391 308.033147 
L 122.666667 306.650763 
L 117.154221 304.155491 
L 116.670222 303.924872 
L 110.673778 300.986017 
L 109.267855 300.277834 
L 104.677333 297.837065 
L 102.045999 296.400177 
L 98.680889 294.454506 
L 95.425127 292.522521 
L 92.684444 290.79454 
L 89.360166 288.644864 
L 86.688 286.801685 
L 83.810438 284.767208 
L 80.691556 282.404607 
L 78.739142 280.889551 
L 74.695111 277.510024 
L 74.112898 277.011895 
L 69.929332 273.134238 
L 68.698667 271.889863 
L 66.153585 269.256581 
L 62.746514 265.378925 
L 62.702222 265.322914 
L 59.747308 261.501268 
L 57.082221 257.623612 
L 56.705778 256.997647 
L 54.792782 253.745955 
L 52.837419 249.868299 
L 51.207951 245.990642 
L 50.709333 244.507438 
L 49.921503 242.112985 
L 48.964623 238.235329 
L 48.326704 234.357672 
L 48.007744 230.480016 
L 48.007744 226.602359 
L 48.326704 222.724703 
L 48.964623 218.847046 
L 49.921503 214.96939 
L 50.709333 212.574937 
L 51.207951 211.091733 
L 52.837419 207.214076 
L 54.792782 203.33642 
L 56.705778 200.084728 
L 57.082221 199.458763 
L 59.747308 195.581107 
L 62.702222 191.759461 
L 62.746514 191.70345 
L 66.153585 187.825794 
L 68.698667 185.192512 
L 69.929332 183.948137 
L 74.112898 180.07048 
L 74.695111 179.572351 
L 78.739142 176.192824 
L 80.691556 174.677768 
L 83.810438 172.315167 
L 86.688 170.28069 
L 89.360166 168.437511 
L 92.684444 166.287835 
L 95.425127 164.559854 
L 98.680889 162.627869 
L 102.045999 160.682198 
L 104.677333 159.24531 
L 109.267855 156.804541 
L 110.673778 156.096358 
L 116.670222 153.157503 
L 117.154221 152.926884 
L 122.666667 150.431612 
L 125.810391 149.049228 
L 128.663111 147.85454 
L 134.659556 145.417156 
L 135.282624 145.171571 
L 140.656 143.149902 
L 145.748142 141.293915 
L 146.652444 140.978644 
L 152.648889 138.955519 
L 157.368504 137.416258 
L 158.645333 137.017183 
L 164.641778 135.20761 
L 170.377266 133.538602 
L 170.638222 133.465702 
L 176.634667 131.852597 
L 182.631111 130.301534 
L 185.210831 129.660945 
L 188.627556 128.845146 
L 194.624 127.473052 
L 200.620444 126.160614 
L 202.426516 125.783289 
L 206.616889 124.940257 
L 212.613333 123.791322 
L 218.609778 122.699833 
L 223.21538 121.905632 
L 224.606222 121.674357 
L 230.602667 120.732641 
L 236.599111 119.846319 
L 242.595556 119.015393 
L 248.592 118.239862 
L 250.356338 118.027975 
L 254.588444 117.537251 
L 260.584889 116.895432 
L 266.581333 116.307098 
L 272.577778 115.772249 
L 278.574222 115.290885 
L 284.570667 114.863005 
L 290.567111 114.488611 
L 296.563556 114.167701 
L 296.953324 114.150319 
L 302.56 113.908612 
L 308.556444 113.701803 
L 314.552889 113.546697 
L 320.549333 113.443293 
L 326.545778 113.391591 
L 332.542222 113.391591 
L 338.538667 113.443293 
L 344.535111 113.546697 
L 350.531556 113.701803 
L 356.528 113.908612 
L 362.134676 114.150319 
L 362.524444 114.167701 
L 368.520889 114.488611 
L 374.517333 114.863005 
L 380.513778 115.290885 
L 386.510222 115.772249 
L 392.506667 116.307098 
L 398.503111 116.895432 
L 404.499556 117.537251 
L 408.731662 118.027975 
L 410.496 118.239862 
L 416.492444 119.015393 
L 422.488889 119.846319 
L 428.485333 120.732641 
L 434.481778 121.674357 
L 435.87262 121.905632 
L 440.478222 122.699833 
L 446.474667 123.791322 
L 452.471111 124.940257 
L 456.661484 125.783289 
L 458.467556 126.160614 
L 464.464 127.473052 
L 470.460444 128.845146 
L 473.877169 129.660945 
L 476.456889 130.301534 
L 482.453333 131.852597 
L 488.449778 133.465702 
L 488.710734 133.538602 
L 494.446222 135.20761 
L 500.442667 137.017183 
L 501.719496 137.416258 
L 506.439111 138.955519 
L 512.435556 140.978644 
L 513.339858 141.293915 
L 518.432 143.149902 
L 523.805376 145.171571 
L 524.428444 145.417156 
L 530.424889 147.85454 
L 533.277609 149.049228 
L 536.421333 150.431612 
L 541.933779 152.926884 
L 542.417778 153.157503 
L 548.414222 156.096358 
L 549.820145 156.804541 
L 554.410667 159.24531 
L 557.042001 160.682198 
L 560.407111 162.627869 
L 563.662873 164.559854 
L 566.403556 166.287835 
L 569.727834 168.437511 
L 572.4 170.28069 
L 575.277562 172.315167 
L 578.396444 174.677768 
L 580.348858 176.192824 
L 584.392889 179.572351 
L 584.975102 180.07048 
L 589.158668 183.948137 
L 590.389333 185.192512 
L 592.934415 187.825794 
L 596.341486 191.70345 
L 596.385778 191.759461 
L 599.340692 195.581107 
L 602.005779 199.458763 
L 602.382222 200.084728 
L 604.295218 203.33642 
L 606.250581 207.214076 
L 607.880049 211.091733 
L 608.378667 212.574937 
L 609.166497 214.96939 
L 610.123377 218.847046 
L 610.761296 222.724703 
L 611.080256 226.602359 
L 611.080256 230.480016 
L 610.761296 234.357672 
L 610.123377 238.235329 
L 609.166497 242.112985 
L 608.378667 244.507438 
L 607.880049 245.990642 
L 606.250581 249.868299 
L 604.295218 253.745955 
L 602.382222 256.997647 
L 602.005779 257.623612 
L 599.340692 261.501268 
L 596.385778 265.322914 
L 596.341486 265.378925 
L 592.934415 269.256581 
L 590.389333 271.889863 
L 589.158668 273.134238 
L 584.975102 277.011895 
L 584.392889 277.510024 
L 580.348858 280.889551 
L 578.396444 282.404607 
L 575.277562 284.767208 
L 572.4 286.801685 
L 569.727834 288.644864 
L 566.403556 290.79454 
L 563.662873 292.522521 
L 560.407111 294.454506 
L 557.042001 296.400177 
L 554.410667 297.837065 
L 549.820145 300.277834 
L 548.414222 300.986017 
L 542.417778 303.924872 
L 541.933779 304.155491 
L 536.421333 306.650763 
L 533.277609 308.033147 
L 530.424889 309.227835 
L 524.428444 311.665219 
L 523.805376 311.910804 
L 518.432 313.932473 
L 513.339858 315.78846 
L 512.435556 316.103731 
L 506.439111 318.126856 
L 501.719496 319.666117 
L 500.442667 320.065192 
L 494.446222 321.874765 
L 488.710734 323.543773 
L 488.449778 323.616673 
L 482.453333 325.229778 
L 476.456889 326.780841 
L 473.877169 327.42143 
L 470.460444 328.237229 
L 464.464 329.609323 
L 458.467556 330.921761 
L 456.661484 331.299086 
L 452.471111 332.142118 
L 446.474667 333.291053 
L 440.478222 334.382542 
L 435.87262 335.176743 
L 434.481778 335.408018 
L 428.485333 336.349734 
L 422.488889 337.236056 
L 416.492444 338.066982 
L 410.496 338.842513 
L 408.731662 339.0544 
L 404.499556 339.545124 
L 398.503111 340.186943 
L 392.506667 340.775277 
L 386.510222 341.310126 
L 380.513778 341.79149 
L 374.517333 342.21937 
L 368.520889 342.593764 
L 362.524444 342.914674 
L 362.134676 342.932056 
L 356.528 343.173763 
L 350.531556 343.380572 
L 344.535111 343.535678 
L 338.538667 343.639082 
L 332.542222 343.690784 
L 326.545778 343.690784 
L 320.549333 343.639082 
L 314.552889 343.535678 
L 308.556444 343.380572 
L 302.56 343.173763 
z
" clip-path="url(#p93925e7559)" style="fill: none; stroke: #d9d9d9; stroke-opacity: 0.5; stroke-width: 1.5"/>
    <path d="M 626.368 282.796527 
L 624.191229 284.767208 
L 619.586084 288.644864 
L 614.375111 292.678768 
L 608.378667 296.935509 
L 602.382222 300.866626 
L 596.385778 304.52096 
L 590.209789 308.033147 
L 582.852731 311.910804 
L 572.4 316.949228 
L 566.359351 319.666117 
L 554.410667 324.580659 
L 546.950507 327.42143 
L 535.929713 331.299086 
L 523.812403 335.176743 
L 510.379275 339.0544 
L 500.442667 341.659784 
L 488.449778 344.545808 
L 476.456889 347.170585 
L 464.464 349.522196 
L 452.471111 351.642848 
L 440.478222 353.533206 
L 428.485333 355.209539 
L 416.492444 356.666598 
L 404.499556 357.935649 
L 392.506667 358.99981 
L 380.513778 359.866581 
L 368.520889 360.550873 
L 356.528 361.052687 
L 344.535111 361.372024 
L 332.542222 361.508882 
L 320.549333 361.463263 
L 308.556444 361.235165 
L 296.563556 360.82459 
L 284.570667 360.231537 
L 272.577778 359.456005 
L 259.978998 358.442682 
L 248.592 357.324625 
L 236.599111 355.96157 
L 224.606222 354.405678 
L 212.613333 352.612262 
L 200.620444 350.62295 
L 188.627556 348.371408 
L 176.634667 345.890062 
L 163.739634 342.932056 
L 152.648889 340.108721 
L 146.652444 338.484523 
L 134.659556 334.987887 
L 122.666667 331.132795 
L 110.673778 326.876231 
L 98.680889 322.168013 
L 92.684444 319.646729 
L 84.17059 315.78846 
L 74.695111 311.114038 
L 68.698667 307.933297 
L 62.074261 304.155491 
L 55.765574 300.277834 
L 49.916718 296.400177 
L 44.498953 292.522521 
L 38.716444 287.994711 
L 32.72 282.796527 
M 32.72 174.285848 
L 34.896771 172.315167 
L 39.501916 168.437511 
L 44.712889 164.403607 
L 50.709333 160.146866 
L 56.705778 156.215749 
L 62.702222 152.561415 
L 68.878211 149.049228 
L 76.235269 145.171571 
L 86.688 140.133147 
L 92.728649 137.416258 
L 104.677333 132.501716 
L 112.137493 129.660945 
L 123.158287 125.783289 
L 135.275597 121.905632 
L 148.708725 118.027975 
L 158.645333 115.422591 
L 170.638222 112.536567 
L 182.631111 109.91179 
L 194.624 107.560179 
L 206.616889 105.439527 
L 218.609778 103.549169 
L 230.602667 101.872836 
L 242.595556 100.415777 
L 254.588444 99.146726 
L 266.581333 98.082565 
L 278.574222 97.215794 
L 290.567111 96.531502 
L 302.56 96.029688 
L 314.552889 95.710351 
L 326.545778 95.573493 
L 338.538667 95.619112 
L 350.531556 95.84721 
L 362.524444 96.257785 
L 374.517333 96.850838 
L 386.510222 97.62637 
L 399.109002 98.639693 
L 410.496 99.75775 
L 422.488889 101.120805 
L 434.481778 102.676697 
L 446.474667 104.470113 
L 458.467556 106.459425 
L 470.460444 108.710967 
L 482.453333 111.192313 
L 495.348366 114.150319 
L 506.439111 116.973654 
L 512.435556 118.597852 
L 524.428444 122.094488 
L 536.421333 125.94958 
L 548.414222 130.206144 
L 560.407111 134.914362 
L 566.403556 137.435646 
L 574.91741 141.293915 
L 584.392889 145.968337 
L 590.389333 149.149078 
L 597.013739 152.926884 
L 603.322426 156.804541 
L 609.171282 160.682198 
L 614.589047 164.559854 
L 620.371556 169.087664 
L 626.368 174.285848 
L 626.368 174.285848 
" clip-path="url(#p93925e7559)" style="fill: none; stroke: #c6c6c6; stroke-opacity: 0.5; stroke-width: 1.5"/>
    <path d="M 626.368 314.360778 
L 620.371556 317.727289 
L 614.375111 320.910198 
L 608.378667 323.931539 
L 601.016365 327.42143 
L 590.389333 332.088979 
L 582.858085 335.176743 
L 572.4 339.174741 
L 560.407111 343.384449 
L 548.414222 347.247513 
L 536.421333 350.796428 
L 522.414014 354.565026 
L 512.435556 357.020875 
L 500.442667 359.754243 
L 488.161487 362.320339 
L 476.456889 364.525064 
L 464.464 366.596533 
L 452.471111 368.449191 
L 440.478222 370.128053 
L 428.485333 371.595274 
L 416.492444 372.894813 
L 404.499556 374.024739 
L 392.506667 374.96354 
L 380.513778 375.739072 
L 368.520889 376.351333 
L 356.528 376.800325 
L 344.535111 377.086047 
L 332.542222 377.208499 
L 320.549333 377.167682 
L 308.556444 376.963595 
L 296.563556 376.596238 
L 284.570667 376.065611 
L 272.577778 375.371715 
L 260.584889 374.514548 
L 248.592 373.481702 
L 236.599111 372.266004 
L 224.606222 370.882624 
L 212.613333 369.310892 
L 200.620444 367.544404 
L 188.627556 365.58865 
L 176.634667 363.417162 
L 164.641778 361.031588 
L 152.648889 358.430932 
L 136.673986 354.565026 
L 128.663111 352.444432 
L 116.670222 349.048747 
L 104.677333 345.349129 
L 92.684444 341.314137 
L 86.358927 339.0544 
L 74.695111 334.55919 
L 66.824778 331.299086 
L 56.705778 326.785494 
L 49.911934 323.543773 
L 42.308065 319.666117 
L 35.198122 315.78846 
L 32.72 314.360778 
M 32.72 142.721597 
L 38.716444 139.355086 
L 44.712889 136.172177 
L 50.709333 133.150836 
L 58.071635 129.660945 
L 68.698667 124.993396 
L 76.229915 121.905632 
L 86.688 117.907634 
L 98.680889 113.697926 
L 110.673778 109.834862 
L 122.666667 106.285947 
L 136.673986 102.517349 
L 146.652444 100.0615 
L 158.645333 97.328132 
L 170.926513 94.762036 
L 182.631111 92.557311 
L 194.624 90.485842 
L 206.616889 88.633184 
L 218.609778 86.954322 
L 230.602667 85.487101 
L 242.595556 84.187562 
L 254.588444 83.057636 
L 266.581333 82.118835 
L 278.574222 81.343303 
L 290.567111 80.731042 
L 302.56 80.28205 
L 314.552889 79.996328 
L 326.545778 79.873876 
L 338.538667 79.914693 
L 350.531556 80.11878 
L 362.524444 80.486137 
L 374.517333 81.016764 
L 386.510222 81.71066 
L 398.503111 82.567827 
L 410.496 83.600673 
L 422.488889 84.816371 
L 434.481778 86.199751 
L 446.474667 87.771483 
L 458.467556 89.537971 
L 470.460444 91.493725 
L 482.453333 93.665213 
L 494.446222 96.050787 
L 506.439111 98.651443 
L 522.414014 102.517349 
L 530.424889 104.637943 
L 542.417778 108.033628 
L 554.410667 111.733246 
L 566.403556 115.768238 
L 572.729073 118.027975 
L 584.392889 122.523185 
L 592.263222 125.783289 
L 602.382222 130.296881 
L 609.176066 133.538602 
L 616.779935 137.416258 
L 623.889878 141.293915 
L 626.368 142.721597 
L 626.368 142.721597 
" clip-path="url(#p93925e7559)" style="fill: none; stroke: #b0b0b0; stroke-opacity: 0.5; stroke-width: 1.5"/>
    <path d="M 626.368 337.1038 
L 620.371556 339.791823 
L 608.378667 344.808196 
L 602.382222 347.174338 
L 590.389333 351.598013 
L 578.396444 355.683084 
L 566.403556 359.459427 
L 554.410667 362.953505 
L 542.381371 366.197996 
L 526.570356 370.075652 
L 518.432 371.911251 
L 506.439111 374.454853 
L 494.446222 376.781447 
L 482.453333 378.916212 
L 470.460444 380.864983 
L 458.467556 382.631019 
L 446.474667 384.220859 
L 434.481778 385.653901 
L 422.488889 386.902317 
L 410.496 387.99941 
L 398.503111 388.94518 
L 386.510222 389.733063 
L 368.520889 390.619384 
L 350.531556 391.173335 
L 332.542222 391.394916 
L 314.552889 391.284125 
L 296.563556 390.840965 
L 278.574222 390.065433 
L 266.581333 389.361319 
L 254.588444 388.491211 
L 242.595556 387.469779 
L 230.602667 386.297024 
L 218.609778 384.957613 
L 206.616889 383.445327 
L 194.157972 381.708622 
L 182.631111 379.910483 
L 170.352281 377.830965 
L 158.645333 375.638559 
L 146.652444 373.21079 
L 132.517644 370.075652 
L 122.666667 367.696818 
L 110.673778 364.5932 
L 98.680889 361.238587 
L 86.688 357.610161 
L 74.695111 353.682253 
L 62.702222 349.42588 
L 50.709333 344.808196 
L 44.712889 342.359099 
L 32.72 337.1038 
M 32.72 119.978575 
L 38.716444 117.290552 
L 50.709333 112.274179 
L 56.705778 109.908037 
L 68.698667 105.484362 
L 80.691556 101.399291 
L 92.684444 97.622948 
L 104.677333 94.12887 
L 116.706629 90.884379 
L 132.517644 87.006723 
L 140.656 85.171124 
L 152.648889 82.627522 
L 164.641778 80.300928 
L 176.634667 78.166163 
L 188.627556 76.217392 
L 200.620444 74.451356 
L 212.613333 72.861516 
L 224.606222 71.428474 
L 236.599111 70.180058 
L 248.592 69.082965 
L 260.584889 68.137195 
L 272.577778 67.349312 
L 290.567111 66.462991 
L 308.556444 65.90904 
L 326.545778 65.687459 
L 344.535111 65.79825 
L 362.524444 66.24141 
L 380.513778 67.016942 
L 392.506667 67.721056 
L 404.499556 68.591164 
L 416.492444 69.612596 
L 428.485333 70.785351 
L 440.478222 72.124762 
L 452.471111 73.637048 
L 464.930028 75.373753 
L 476.456889 77.171892 
L 488.735719 79.25141 
L 500.442667 81.443816 
L 512.435556 83.871585 
L 526.570356 87.006723 
L 536.421333 89.385557 
L 548.414222 92.489175 
L 560.407111 95.843788 
L 572.4 99.472214 
L 584.392889 103.400122 
L 596.385778 107.656495 
L 608.378667 112.274179 
L 614.375111 114.723276 
L 626.368 119.978575 
L 626.368 119.978575 
" clip-path="url(#p93925e7559)" style="fill: none; stroke: #959595; stroke-opacity: 0.5; stroke-width: 1.5"/>
    <path d="M 626.368 355.849353 
L 614.375111 360.350718 
L 602.382222 364.528387 
L 590.389333 368.409337 
L 578.396444 372.017624 
L 566.403556 375.374776 
L 554.410667 378.50011 
L 541.102843 381.708622 
L 530.424889 384.086595 
L 518.432 386.582174 
L 503.301316 389.463935 
L 488.449778 392.005647 
L 476.456889 393.876347 
L 458.467556 396.365262 
L 446.474667 397.829979 
L 428.485333 399.733556 
L 410.496 401.314915 
L 392.506667 402.555765 
L 374.517333 403.486403 
L 356.528 404.106828 
L 338.538667 404.41704 
L 320.549333 404.41704 
L 302.56 404.106828 
L 284.570667 403.486403 
L 266.581333 402.555765 
L 248.592 401.314915 
L 236.599111 400.297579 
L 218.609778 398.499756 
L 206.616889 397.122758 
L 188.627556 394.742057 
L 176.634667 392.965828 
L 158.645333 389.974493 
L 146.652444 387.754929 
L 134.659556 385.366221 
L 117.985157 381.708622 
L 110.673778 379.971631 
L 98.680889 376.966656 
L 86.688 373.73637 
L 74.09198 370.075652 
L 61.726134 366.197996 
L 50.221325 362.320339 
L 38.716444 358.152446 
L 32.72 355.849353 
M 32.72 101.233022 
L 44.712889 96.731657 
L 56.705778 92.553988 
L 68.698667 88.673038 
L 80.691556 85.064751 
L 92.684444 81.707599 
L 104.677333 78.582265 
L 117.985157 75.373753 
L 128.663111 72.99578 
L 140.656 70.500201 
L 155.786684 67.61844 
L 170.638222 65.076728 
L 182.631111 63.206028 
L 200.620444 60.717113 
L 212.613333 59.252396 
L 230.602667 57.348819 
L 248.592 55.76746 
L 266.581333 54.52661 
L 284.570667 53.595972 
L 302.56 52.975547 
L 320.549333 52.665335 
L 338.538667 52.665335 
L 356.528 52.975547 
L 374.517333 53.595972 
L 392.506667 54.52661 
L 410.496 55.76746 
L 422.488889 56.784796 
L 440.478222 58.582619 
L 452.471111 59.959617 
L 470.460444 62.340318 
L 482.453333 64.116547 
L 500.442667 67.107882 
L 512.435556 69.327446 
L 524.428444 71.716154 
L 541.102843 75.373753 
L 548.414222 77.110744 
L 560.407111 80.115719 
L 572.4 83.346005 
L 584.99602 87.006723 
L 597.361866 90.884379 
L 608.866675 94.762036 
L 620.371556 98.929929 
L 626.368 101.233022 
L 626.368 101.233022 
" clip-path="url(#p93925e7559)" style="fill: none; stroke: #7e7e7e; stroke-opacity: 0.5; stroke-width: 1.5"/>
    <path d="M 626.368 372.165919 
L 614.375111 376.172247 
L 602.382222 379.913466 
L 590.389333 383.409459 
L 578.396444 386.67817 
L 566.403556 389.735833 
L 551.066028 393.341592 
L 536.421333 396.492864 
L 524.428444 398.871218 
L 512.408072 401.096905 
L 494.446222 404.090886 
L 482.453333 405.897191 
L 464.464 408.324941 
L 452.471111 409.755217 
L 434.481778 411.636293 
L 416.492444 413.210138 
L 398.503111 414.470377 
L 380.513778 415.439791 
L 362.524444 416.118381 
L 344.535111 416.506146 
L 326.545778 416.603088 
L 308.556444 416.409205 
L 290.567111 415.924498 
L 272.577778 415.148967 
L 254.588444 414.082611 
L 236.599111 412.725337 
L 218.609778 411.042269 
L 200.620444 409.062189 
L 188.627556 407.549409 
L 170.335624 404.974561 
L 152.648889 402.126207 
L 140.656 399.999263 
L 126.218237 397.219248 
L 110.673778 393.931807 
L 98.680889 391.176105 
L 86.688 388.229232 
L 74.695111 385.076851 
L 62.702222 381.703153 
L 49.897581 377.830965 
L 37.937824 373.953309 
L 32.72 372.165919 
M 32.72 84.916456 
L 44.712889 80.910128 
L 56.705778 77.168909 
L 68.698667 73.672916 
L 80.691556 70.404205 
L 92.684444 67.346542 
L 108.021972 63.740783 
L 122.666667 60.589511 
L 134.659556 58.211157 
L 146.679928 55.98547 
L 164.641778 52.991489 
L 176.634667 51.185184 
L 194.624 48.757434 
L 206.616889 47.327158 
L 224.606222 45.446082 
L 242.595556 43.872237 
L 260.584889 42.611998 
L 278.574222 41.642584 
L 296.563556 40.963994 
L 314.552889 40.576229 
L 332.542222 40.479287 
L 350.531556 40.67317 
L 368.520889 41.157877 
L 386.510222 41.933408 
L 404.499556 42.999764 
L 422.488889 44.357038 
L 440.478222 46.040106 
L 458.467556 48.020186 
L 470.460444 49.532966 
L 488.752376 52.107814 
L 506.439111 54.956168 
L 518.432 57.083112 
L 532.869763 59.863127 
L 548.414222 63.150568 
L 560.407111 65.90627 
L 572.4 68.853143 
L 584.392889 72.005524 
L 596.385778 75.379222 
L 609.190419 79.25141 
L 621.150176 83.129066 
L 626.368 84.916456 
L 626.368 84.916456 
" clip-path="url(#p93925e7559)" style="fill: none; stroke: #686868; stroke-opacity: 0.5; stroke-width: 1.5"/>
    <path d="M 196.831782 420.485187 
L 182.631111 418.741033 
L 164.641778 416.265005 
L 146.652444 413.453704 
L 134.659556 411.39002 
L 120.97053 408.852218 
L 104.677333 405.544408 
L 92.684444 402.903031 
L 80.691556 400.088714 
L 68.698667 397.089392 
L 54.763451 393.341592 
L 41.352381 389.463935 
L 32.72 386.811996 
M 626.368 386.811996 
L 614.375111 390.457354 
L 602.382222 393.879053 
L 589.887305 397.219248 
L 574.213559 401.096905 
L 560.407111 404.247285 
L 548.414222 406.792002 
L 536.421333 409.178931 
L 518.432 412.446063 
L 506.439111 414.423118 
L 488.449778 417.126662 
L 470.460444 419.500738 
L 462.256218 420.485187 
M 32.72 70.270379 
L 44.712889 66.625021 
L 56.705778 63.203322 
L 69.200695 59.863127 
L 84.874441 55.98547 
L 98.680889 52.83509 
L 110.673778 50.290373 
L 122.666667 47.903444 
L 140.656 44.636312 
L 152.648889 42.659257 
L 170.638222 39.955713 
L 188.627556 37.581637 
L 196.831782 36.597187 
M 462.256218 36.597187 
L 476.456889 38.341342 
L 494.446222 40.81737 
L 512.435556 43.628671 
L 524.428444 45.692355 
L 538.11747 48.230157 
L 554.410667 51.537967 
L 566.403556 54.179344 
L 578.396444 56.993661 
L 590.389333 59.992983 
L 604.324549 63.740783 
L 617.735619 67.61844 
L 626.368 70.270379 
L 626.368 70.270379 
" clip-path="url(#p93925e7559)" style="fill: none; stroke: #515151; stroke-opacity: 0.5; stroke-width: 1.5"/>
    <path d="M 119.679152 420.485187 
L 116.670222 419.929258 
L 110.673778 418.789702 
L 104.677333 417.618491 
L 99.637558 416.607531 
L 98.680889 416.411628 
L 92.684444 415.15139 
L 86.688 413.858838 
L 81.578225 412.729874 
L 80.691556 412.529804 
L 74.695111 411.143748 
L 68.698667 409.724691 
L 65.095689 408.852218 
L 62.702222 408.260032 
L 56.705778 406.742688 
L 50.709333 405.191626 
L 49.888012 404.974561 
L 44.712889 403.576451 
L 38.716444 401.921984 
L 35.787059 401.096905 
L 32.72 400.213416 
M 626.368 400.213416 
L 623.300941 401.096905 
L 620.371556 401.921984 
L 614.375111 403.576451 
L 609.199988 404.974561 
L 608.378667 405.191626 
L 602.382222 406.742688 
L 596.385778 408.260032 
L 593.992311 408.852218 
L 590.389333 409.724691 
L 584.392889 411.143748 
L 578.396444 412.529804 
L 577.509775 412.729874 
L 572.4 413.858838 
L 566.403556 415.15139 
L 560.407111 416.411628 
L 559.450442 416.607531 
L 554.410667 417.618491 
L 548.414222 418.789702 
L 542.417778 419.929258 
L 539.408848 420.485187 
M 32.72 56.868959 
L 35.787059 55.98547 
L 38.716444 55.160391 
L 44.712889 53.505924 
L 49.888012 52.107814 
L 50.709333 51.890749 
L 56.705778 50.339687 
L 62.702222 48.822343 
L 65.095689 48.230157 
L 68.698667 47.357684 
L 74.695111 45.938627 
L 80.691556 44.552571 
L 81.578225 44.352501 
L 86.688 43.223537 
L 92.684444 41.930985 
L 98.680889 40.670747 
L 99.637558 40.474844 
L 104.677333 39.463884 
L 110.673778 38.292673 
L 116.670222 37.153117 
L 119.679152 36.597187 
M 539.408848 36.597187 
L 542.417778 37.153117 
L 548.414222 38.292673 
L 554.410667 39.463884 
L 559.450442 40.474844 
L 560.407111 40.670747 
L 566.403556 41.930985 
L 572.4 43.223537 
L 577.509775 44.352501 
L 578.396444 44.552571 
L 584.392889 45.938627 
L 590.389333 47.357684 
L 593.992311 48.230157 
L 596.385778 48.822343 
L 602.382222 50.339687 
L 608.378667 51.890749 
L 609.199988 52.107814 
L 614.375111 53.505924 
L 620.371556 55.160391 
L 623.300941 55.98547 
L 626.368 56.868959 
" clip-path="url(#p93925e7559)" style="fill: none; stroke: #333333; stroke-opacity: 0.5; stroke-width: 1.5"/>
    <path d="M 64.068458 420.485187 
L 62.702222 420.167853 
L 56.705778 418.743407 
L 50.709333 417.287308 
L 47.969469 416.607531 
L 44.712889 415.782721 
L 38.716444 414.231658 
L 33.029 412.729874 
L 32.72 412.646546 
M 626.368 412.646546 
L 626.059 412.729874 
L 620.371556 414.231658 
L 614.375111 415.782721 
L 611.118531 416.607531 
L 608.378667 417.287308 
L 602.382222 418.743407 
L 596.385778 420.167853 
L 595.019542 420.485187 
M 32.72 44.435829 
L 33.029 44.352501 
L 38.716444 42.850717 
L 44.712889 41.299654 
L 47.969469 40.474844 
L 50.709333 39.795067 
L 56.705778 38.338968 
L 62.702222 36.914522 
L 64.068458 36.597187 
M 595.019542 36.597187 
L 596.385778 36.914522 
L 602.382222 38.338968 
L 608.378667 39.795067 
L 611.118531 40.474844 
L 614.375111 41.299654 
L 620.371556 42.850717 
L 626.059 44.352501 
L 626.368 44.435829 
" clip-path="url(#p93925e7559)" style="fill: none; stroke: #181818; stroke-opacity: 0.5; stroke-width: 1.5"/>
    <path clip-path="url(#p93925e7559)" style="fill: none; stroke: #000000; stroke-opacity: 0.5; stroke-width: 1.5"/>
   </g>
   <g id="line2d_21">
    <path d="M 418.5912 209.346787 
L 264.24272 184.394067 
" clip-path="url(#p93925e7559)" style="fill: none; stroke-dasharray: 5.55,2.4; stroke-dashoffset: 0; stroke: #1a1a1a; stroke-opacity: 0.3; stroke-width: 1.5"/>
   </g>
   <g id="line2d_22">
    <path d="M 353.28992 88.422067 
L 264.24272 184.394067 
" clip-path="url(#p93925e7559)" style="fill: none; stroke-dasharray: 5.55,2.4; stroke-dashoffset: 0; stroke: #1a1a1a; stroke-opacity: 0.3; stroke-width: 1.5"/>
   </g>
   <g id="patch_3">
    <path d="M 32.72 420.485187 
L 32.72 36.597187 
" style="fill: none; stroke: #cccccc; stroke-width: 1.25; stroke-linejoin: miter; stroke-linecap: square"/>
   </g>
   <g id="patch_4">
    <path d="M 626.368 420.485187 
L 626.368 36.597187 
" style="fill: none; stroke: #cccccc; stroke-width: 1.25; stroke-linejoin: miter; stroke-linecap: square"/>
   </g>
   <g id="patch_5">
    <path d="M 32.72 420.485187 
L 626.368 420.485187 
" style="fill: none; stroke: #cccccc; stroke-width: 1.25; stroke-linejoin: miter; stroke-linecap: square"/>
   </g>
   <g id="patch_6">
    <path d="M 32.72 36.597187 
L 626.368 36.597187 
" style="fill: none; stroke: #cccccc; stroke-width: 1.25; stroke-linejoin: miter; stroke-linecap: square"/>
   </g>
   <g id="text_3">
    <!-- $\nabla \mathcal{L}_{EMP}$ -->
    <g style="fill: #4682b4" transform="translate(492.7972 161.360787) scale(0.16 -0.16)">
     <defs>
      <path id="DejaVuSans-2207" d="M 2138 659 
L 3444 4047 
L 831 4047 
L 2138 659 
z
M 1791 0 
L -19 4603 
L 4300 4603 
L 2491 0 
L 1791 0 
z
" transform="scale(0.015625)"/>
      <path id="STIXNonUnicode-Italic-e238" d="M 4070 915 
L 4179 800 
Q 3347 -45 2413 -45 
Q 2157 -45 1850 26 
Q 1395 122 1146 122 
Q 1005 122 672 61 
Q 339 0 192 0 
L 230 154 
Q 582 154 730 749 
L 1178 2566 
Q 1286 3008 1516 3353 
Q 1747 3699 2025 3894 
Q 2304 4090 2585 4189 
Q 2867 4288 3123 4288 
Q 3443 4288 3593 4083 
Q 3744 3878 3744 3584 
Q 3744 3347 3593 3200 
Q 3443 3053 3226 3053 
Q 3085 3053 2995 3149 
Q 2906 3245 2906 3379 
Q 2906 3482 2957 3552 
Q 3008 3622 3065 3644 
Q 3123 3667 3174 3705 
Q 3226 3744 3226 3789 
Q 3226 4032 2854 4032 
Q 2522 4032 2310 3785 
Q 2099 3539 1990 3132 
Q 1882 2726 1795 2284 
Q 1709 1843 1549 1363 
Q 1389 883 1158 589 
L 1158 563 
Q 1363 704 1888 704 
Q 2227 704 2460 544 
Q 2694 384 2963 384 
Q 3507 384 4070 915 
z
" transform="scale(0.015625)"/>
      <path id="DejaVuSans-Oblique-45" d="M 1081 4666 
L 4031 4666 
L 3928 4134 
L 1606 4134 
L 1338 2753 
L 3566 2753 
L 3463 2222 
L 1234 2222 
L 909 531 
L 3284 531 
L 3181 0 
L 172 0 
L 1081 4666 
z
" transform="scale(0.015625)"/>
      <path id="DejaVuSans-Oblique-4d" d="M 1081 4666 
L 2028 4666 
L 2572 1522 
L 4378 4666 
L 5350 4666 
L 4441 0 
L 3828 0 
L 4622 4091 
L 2791 897 
L 2175 897 
L 1581 4103 
L 788 0 
L 172 0 
L 1081 4666 
z
" transform="scale(0.015625)"/>
      <path id="DejaVuSans-Oblique-50" d="M 1081 4666 
L 2541 4666 
Q 3178 4666 3512 4369 
Q 3847 4072 3847 3500 
Q 3847 2731 3353 2303 
Q 2859 1875 1966 1875 
L 1172 1875 
L 806 0 
L 172 0 
L 1081 4666 
z
M 1613 4147 
L 1275 2394 
L 2069 2394 
Q 2606 2394 2893 2669 
Q 3181 2944 3181 3456 
Q 3181 3784 2986 3965 
Q 2791 4147 2438 4147 
L 1613 4147 
z
" transform="scale(0.015625)"/>
     </defs>
     <use xlink:href="#DejaVuSans-2207" transform="translate(0 0.078125)"/>
     <use xlink:href="#STIXNonUnicode-Italic-e238" transform="translate(66.894531 0.078125)"/>
     <use xlink:href="#DejaVuSans-Oblique-45" transform="translate(137.15155 -16.328125) scale(0.7)"/>
     <use xlink:href="#DejaVuSans-Oblique-4d" transform="translate(181.380066 -16.328125) scale(0.7)"/>
     <use xlink:href="#DejaVuSans-Oblique-50" transform="translate(241.775574 -16.328125) scale(0.7)"/>
    </g>
   </g>
   <g id="text_4">
    <!-- $\lambda \nabla \mathcal{L}_{FIS}$ -->
    <g style="fill: #ff8c00" transform="translate(418.5912 93.220667) scale(0.16 -0.16)">
     <defs>
      <path id="DejaVuSans-Oblique-3bb" d="M 2350 4316 
L 3125 0 
L 2516 0 
L 2038 2588 
L 328 0 
L -281 0 
L 1903 3356 
L 1794 3975 
Q 1725 4369 1391 4369 
L 1091 4369 
L 1184 4863 
L 1550 4856 
Q 2253 4847 2350 4316 
z
" transform="scale(0.015625)"/>
      <path id="DejaVuSans-Oblique-46" d="M 1081 4666 
L 3756 4666 
L 3653 4134 
L 1606 4134 
L 1338 2759 
L 3188 2759 
L 3084 2228 
L 1234 2228 
L 800 0 
L 172 0 
L 1081 4666 
z
" transform="scale(0.015625)"/>
      <path id="DejaVuSans-Oblique-49" d="M 1081 4666 
L 1716 4666 
L 806 0 
L 172 0 
L 1081 4666 
z
" transform="scale(0.015625)"/>
      <path id="DejaVuSans-Oblique-53" d="M 3859 4513 
L 3738 3897 
Q 3422 4066 3111 4152 
Q 2800 4238 2509 4238 
Q 1944 4238 1609 3991 
Q 1275 3744 1275 3334 
Q 1275 3109 1398 2989 
Q 1522 2869 2034 2731 
L 2413 2638 
Q 3053 2472 3303 2217 
Q 3553 1963 3553 1503 
Q 3553 797 2998 353 
Q 2444 -91 1538 -91 
Q 1166 -91 791 -17 
Q 416 56 38 206 
L 166 856 
Q 513 641 861 531 
Q 1209 422 1556 422 
Q 2147 422 2503 684 
Q 2859 947 2859 1369 
Q 2859 1650 2717 1795 
Q 2575 1941 2106 2059 
L 1728 2156 
Q 1081 2325 845 2545 
Q 609 2766 609 3163 
Q 609 3859 1145 4304 
Q 1681 4750 2541 4750 
Q 2875 4750 3203 4690 
Q 3531 4631 3859 4513 
z
" transform="scale(0.015625)"/>
     </defs>
     <use xlink:href="#DejaVuSans-Oblique-3bb" transform="translate(0 0.015625)"/>
     <use xlink:href="#DejaVuSans-2207" transform="translate(59.179688 0.015625)"/>
     <use xlink:href="#STIXNonUnicode-Italic-e238" transform="translate(126.074219 0.015625)"/>
     <use xlink:href="#DejaVuSans-Oblique-46" transform="translate(196.331238 -16.390625) scale(0.7)"/>
     <use xlink:href="#DejaVuSans-Oblique-49" transform="translate(236.59491 -16.390625) scale(0.7)"/>
     <use xlink:href="#DejaVuSans-Oblique-53" transform="translate(257.239441 -16.390625) scale(0.7)"/>
    </g>
   </g>
   <g id="text_5">
    <!-- $\nabla \mathcal{L}_{Total}$ -->
    <g style="fill: #e91e63" transform="translate(323.60752 184.394067) scale(0.16 -0.16)">
     <defs>
      <path id="DejaVuSans-Oblique-54" d="M 378 4666 
L 4325 4666 
L 4225 4134 
L 2559 4134 
L 1759 0 
L 1125 0 
L 1925 4134 
L 275 4134 
L 378 4666 
z
" transform="scale(0.015625)"/>
      <path id="DejaVuSans-Oblique-6f" d="M 1625 -91 
Q 1009 -91 651 289 
Q 294 669 294 1325 
Q 294 1706 417 2101 
Q 541 2497 738 2766 
Q 1047 3184 1428 3384 
Q 1809 3584 2291 3584 
Q 2888 3584 3255 3212 
Q 3622 2841 3622 2241 
Q 3622 1825 3500 1412 
Q 3378 1000 3181 728 
Q 2875 309 2494 109 
Q 2113 -91 1625 -91 
z
M 891 1344 
Q 891 869 1089 633 
Q 1288 397 1691 397 
Q 2269 397 2648 901 
Q 3028 1406 3028 2181 
Q 3028 2634 2825 2865 
Q 2622 3097 2228 3097 
Q 1903 3097 1650 2945 
Q 1397 2794 1197 2484 
Q 1050 2253 970 1956 
Q 891 1659 891 1344 
z
" transform="scale(0.015625)"/>
      <path id="DejaVuSans-Oblique-74" d="M 2706 3500 
L 2619 3053 
L 1472 3053 
L 1100 1153 
Q 1081 1047 1072 975 
Q 1063 903 1063 863 
Q 1063 663 1183 572 
Q 1303 481 1569 481 
L 2150 481 
L 2053 0 
L 1503 0 
Q 991 0 739 200 
Q 488 400 488 806 
Q 488 878 497 964 
Q 506 1050 525 1153 
L 897 3053 
L 409 3053 
L 500 3500 
L 978 3500 
L 1172 4494 
L 1747 4494 
L 1556 3500 
L 2706 3500 
z
" transform="scale(0.015625)"/>
      <path id="DejaVuSans-Oblique-61" d="M 3438 1997 
L 3047 0 
L 2472 0 
L 2578 531 
Q 2325 219 2001 64 
Q 1678 -91 1281 -91 
Q 834 -91 548 182 
Q 263 456 263 884 
Q 263 1497 752 1853 
Q 1241 2209 2100 2209 
L 2900 2209 
L 2931 2363 
Q 2938 2388 2941 2417 
Q 2944 2447 2944 2509 
Q 2944 2788 2717 2942 
Q 2491 3097 2081 3097 
Q 1800 3097 1504 3025 
Q 1209 2953 897 2809 
L 997 3341 
Q 1322 3463 1633 3523 
Q 1944 3584 2234 3584 
Q 2853 3584 3176 3315 
Q 3500 3047 3500 2534 
Q 3500 2431 3484 2292 
Q 3469 2153 3438 1997 
z
M 2816 1759 
L 2241 1759 
Q 1534 1759 1195 1570 
Q 856 1381 856 984 
Q 856 709 1029 553 
Q 1203 397 1509 397 
Q 1978 397 2328 733 
Q 2678 1069 2791 1631 
L 2816 1759 
z
" transform="scale(0.015625)"/>
      <path id="DejaVuSans-Oblique-6c" d="M 1172 4863 
L 1747 4863 
L 800 0 
L 225 0 
L 1172 4863 
z
" transform="scale(0.015625)"/>
     </defs>
     <use xlink:href="#DejaVuSans-2207" transform="translate(0 0.078125)"/>
     <use xlink:href="#STIXNonUnicode-Italic-e238" transform="translate(66.894531 0.078125)"/>
     <use xlink:href="#DejaVuSans-Oblique-54" transform="translate(137.15155 -16.328125) scale(0.7)"/>
     <use xlink:href="#DejaVuSans-Oblique-6f" transform="translate(179.910339 -16.328125) scale(0.7)"/>
     <use xlink:href="#DejaVuSans-Oblique-74" transform="translate(222.737488 -16.328125) scale(0.7)"/>
     <use xlink:href="#DejaVuSans-Oblique-61" transform="translate(250.183777 -16.328125) scale(0.7)"/>
     <use xlink:href="#DejaVuSans-Oblique-6c" transform="translate(293.079285 -16.328125) scale(0.7)"/>
    </g>
   </g>
   <g id="text_6">
    <g id="patch_7">
     <path d="M 98.229244 393.436387 
L 323.399556 393.436387 
Q 330.399556 393.436387 330.399556 386.436387 
L 330.399556 356.47945 
Q 330.399556 349.47945 323.399556 349.47945 
L 98.229244 349.47945 
Q 91.229244 349.47945 91.229244 356.47945 
L 91.229244 386.436387 
Q 91.229244 393.436387 98.229244 393.436387 
z
" style="fill: #ffffff; opacity: 0.9; stroke: #808080; stroke-linejoin: miter"/>
    </g>
    <!-- Condición de Gradient Matching -->
    <g style="fill: #262626" transform="translate(98.229244 366.248825) scale(0.14 -0.14)">
     <defs>
      <path id="DejaVuSans-43" d="M 4122 4306 
L 4122 3641 
Q 3803 3938 3442 4084 
Q 3081 4231 2675 4231 
Q 1875 4231 1450 3742 
Q 1025 3253 1025 2328 
Q 1025 1406 1450 917 
Q 1875 428 2675 428 
Q 3081 428 3442 575 
Q 3803 722 4122 1019 
L 4122 359 
Q 3791 134 3420 21 
Q 3050 -91 2638 -91 
Q 1578 -91 968 557 
Q 359 1206 359 2328 
Q 359 3453 968 4101 
Q 1578 4750 2638 4750 
Q 3056 4750 3426 4639 
Q 3797 4528 4122 4306 
z
" transform="scale(0.015625)"/>
      <path id="DejaVuSans-6e" d="M 3513 2113 
L 3513 0 
L 2938 0 
L 2938 2094 
Q 2938 2591 2744 2837 
Q 2550 3084 2163 3084 
Q 1697 3084 1428 2787 
Q 1159 2491 1159 1978 
L 1159 0 
L 581 0 
L 581 3500 
L 1159 3500 
L 1159 2956 
Q 1366 3272 1645 3428 
Q 1925 3584 2291 3584 
Q 2894 3584 3203 3211 
Q 3513 2838 3513 2113 
z
" transform="scale(0.015625)"/>
      <path id="DejaVuSans-69" d="M 603 3500 
L 1178 3500 
L 1178 0 
L 603 0 
L 603 3500 
z
M 603 4863 
L 1178 4863 
L 1178 4134 
L 603 4134 
L 603 4863 
z
" transform="scale(0.015625)"/>
      <path id="DejaVuSans-63" d="M 3122 3366 
L 3122 2828 
Q 2878 2963 2633 3030 
Q 2388 3097 2138 3097 
Q 1578 3097 1268 2742 
Q 959 2388 959 1747 
Q 959 1106 1268 751 
Q 1578 397 2138 397 
Q 2388 397 2633 464 
Q 2878 531 3122 666 
L 3122 134 
Q 2881 22 2623 -34 
Q 2366 -91 2075 -91 
Q 1284 -91 818 406 
Q 353 903 353 1747 
Q 353 2603 823 3093 
Q 1294 3584 2113 3584 
Q 2378 3584 2631 3529 
Q 2884 3475 3122 3366 
z
" transform="scale(0.015625)"/>
      <path id="DejaVuSans-f3" d="M 1959 3097 
Q 1497 3097 1228 2736 
Q 959 2375 959 1747 
Q 959 1119 1226 758 
Q 1494 397 1959 397 
Q 2419 397 2687 759 
Q 2956 1122 2956 1747 
Q 2956 2369 2687 2733 
Q 2419 3097 1959 3097 
z
M 1959 3584 
Q 2709 3584 3137 3096 
Q 3566 2609 3566 1747 
Q 3566 888 3137 398 
Q 2709 -91 1959 -91 
Q 1206 -91 779 398 
Q 353 888 353 1747 
Q 353 2609 779 3096 
Q 1206 3584 1959 3584 
z
M 2394 5119 
L 3016 5119 
L 1998 3944 
L 1519 3944 
L 2394 5119 
z
" transform="scale(0.015625)"/>
      <path id="DejaVuSans-47" d="M 3809 666 
L 3809 1919 
L 2778 1919 
L 2778 2438 
L 4434 2438 
L 4434 434 
Q 4069 175 3628 42 
Q 3188 -91 2688 -91 
Q 1594 -91 976 548 
Q 359 1188 359 2328 
Q 359 3472 976 4111 
Q 1594 4750 2688 4750 
Q 3144 4750 3555 4637 
Q 3966 4525 4313 4306 
L 4313 3634 
Q 3963 3931 3569 4081 
Q 3175 4231 2741 4231 
Q 1884 4231 1454 3753 
Q 1025 3275 1025 2328 
Q 1025 1384 1454 906 
Q 1884 428 2741 428 
Q 3075 428 3337 486 
Q 3600 544 3809 666 
z
" transform="scale(0.015625)"/>
      <path id="DejaVuSans-4d" d="M 628 4666 
L 1569 4666 
L 2759 1491 
L 3956 4666 
L 4897 4666 
L 4897 0 
L 4281 0 
L 4281 4097 
L 3078 897 
L 2444 897 
L 1241 4097 
L 1241 0 
L 628 0 
L 628 4666 
z
" transform="scale(0.015625)"/>
      <path id="DejaVuSans-68" d="M 3513 2113 
L 3513 0 
L 2938 0 
L 2938 2094 
Q 2938 2591 2744 2837 
Q 2550 3084 2163 3084 
Q 1697 3084 1428 2787 
Q 1159 2491 1159 1978 
L 1159 0 
L 581 0 
L 581 4863 
L 1159 4863 
L 1159 2956 
Q 1366 3272 1645 3428 
Q 1925 3584 2291 3584 
Q 2894 3584 3203 3211 
Q 3513 2838 3513 2113 
z
" transform="scale(0.015625)"/>
      <path id="DejaVuSans-67" d="M 2906 1791 
Q 2906 2416 2648 2759 
Q 2391 3103 1925 3103 
Q 1463 3103 1205 2759 
Q 947 2416 947 1791 
Q 947 1169 1205 825 
Q 1463 481 1925 481 
Q 2391 481 2648 825 
Q 2906 1169 2906 1791 
z
M 3481 434 
Q 3481 -459 3084 -895 
Q 2688 -1331 1869 -1331 
Q 1566 -1331 1297 -1286 
Q 1028 -1241 775 -1147 
L 775 -588 
Q 1028 -725 1275 -790 
Q 1522 -856 1778 -856 
Q 2344 -856 2625 -561 
Q 2906 -266 2906 331 
L 2906 616 
Q 2728 306 2450 153 
Q 2172 0 1784 0 
Q 1141 0 747 490 
Q 353 981 353 1791 
Q 353 2603 747 3093 
Q 1141 3584 1784 3584 
Q 2172 3584 2450 3431 
Q 2728 3278 2906 2969 
L 2906 3500 
L 3481 3500 
L 3481 434 
z
" transform="scale(0.015625)"/>
     </defs>
     <use xlink:href="#DejaVuSans-43"/>
     <use xlink:href="#DejaVuSans-6f" transform="translate(69.824219 0)"/>
     <use xlink:href="#DejaVuSans-6e" transform="translate(131.005859 0)"/>
     <use xlink:href="#DejaVuSans-64" transform="translate(194.384766 0)"/>
     <use xlink:href="#DejaVuSans-69" transform="translate(257.861328 0)"/>
     <use xlink:href="#DejaVuSans-63" transform="translate(285.644531 0)"/>
     <use xlink:href="#DejaVuSans-69" transform="translate(340.625 0)"/>
     <use xlink:href="#DejaVuSans-f3" transform="translate(368.408203 0)"/>
     <use xlink:href="#DejaVuSans-6e" transform="translate(429.589844 0)"/>
     <use xlink:href="#DejaVuSans-20" transform="translate(492.96875 0)"/>
     <use xlink:href="#DejaVuSans-64" transform="translate(524.755859 0)"/>
     <use xlink:href="#DejaVuSans-65" transform="translate(588.232422 0)"/>
     <use xlink:href="#DejaVuSans-20" transform="translate(649.755859 0)"/>
     <use xlink:href="#DejaVuSans-47" transform="translate(681.542969 0)"/>
     <use xlink:href="#DejaVuSans-72" transform="translate(759.033203 0)"/>
     <use xlink:href="#DejaVuSans-61" transform="translate(800.146484 0)"/>
     <use xlink:href="#DejaVuSans-64" transform="translate(861.425781 0)"/>
     <use xlink:href="#DejaVuSans-69" transform="translate(924.902344 0)"/>
     <use xlink:href="#DejaVuSans-65" transform="translate(952.685547 0)"/>
     <use xlink:href="#DejaVuSans-6e" transform="translate(1014.208984 0)"/>
     <use xlink:href="#DejaVuSans-74" transform="translate(1077.587891 0)"/>
     <use xlink:href="#DejaVuSans-20" transform="translate(1116.796875 0)"/>
     <use xlink:href="#DejaVuSans-4d" transform="translate(1148.583984 0)"/>
     <use xlink:href="#DejaVuSans-61" transform="translate(1234.863281 0)"/>
     <use xlink:href="#DejaVuSans-74" transform="translate(1296.142578 0)"/>
     <use xlink:href="#DejaVuSans-63" transform="translate(1335.351562 0)"/>
     <use xlink:href="#DejaVuSans-68" transform="translate(1390.332031 0)"/>
     <use xlink:href="#DejaVuSans-69" transform="translate(1453.710938 0)"/>
     <use xlink:href="#DejaVuSans-6e" transform="translate(1481.494141 0)"/>
     <use xlink:href="#DejaVuSans-67" transform="translate(1544.873047 0)"/>
    </g>
    <!-- $\| \nabla\mathcal{L}_{Emp} \|_2 \simeq \lambda\| \nabla\mathcal{L}_{Fis} \|_2$ -->
    <g style="fill: #262626" transform="translate(139.9744 382.096387) scale(0.14 -0.14)">
     <defs>
      <path id="DejaVuSans-2016" d="M 1344 4891 
L 1344 -1509 
L 813 -1509 
L 813 4891 
L 1344 4891 
z
M 2376 4891 
L 2376 -1509 
L 1845 -1509 
L 1845 4891 
L 2376 4891 
z
" transform="scale(0.015625)"/>
      <path id="DejaVuSans-Oblique-6d" d="M 5747 2113 
L 5338 0 
L 4763 0 
L 5166 2094 
Q 5191 2228 5203 2325 
Q 5216 2422 5216 2491 
Q 5216 2772 5059 2928 
Q 4903 3084 4622 3084 
Q 4203 3084 3875 2770 
Q 3547 2456 3450 1953 
L 3066 0 
L 2491 0 
L 2900 2094 
Q 2925 2209 2937 2307 
Q 2950 2406 2950 2484 
Q 2950 2769 2794 2926 
Q 2638 3084 2363 3084 
Q 1938 3084 1609 2770 
Q 1281 2456 1184 1953 
L 800 0 
L 225 0 
L 909 3500 
L 1484 3500 
L 1375 2956 
Q 1609 3263 1923 3423 
Q 2238 3584 2597 3584 
Q 2978 3584 3223 3384 
Q 3469 3184 3519 2828 
Q 3781 3197 4126 3390 
Q 4472 3584 4856 3584 
Q 5306 3584 5551 3325 
Q 5797 3066 5797 2591 
Q 5797 2488 5784 2364 
Q 5772 2241 5747 2113 
z
" transform="scale(0.015625)"/>
      <path id="DejaVuSans-Oblique-70" d="M 3175 2156 
Q 3175 2616 2975 2859 
Q 2775 3103 2400 3103 
Q 2144 3103 1911 2972 
Q 1678 2841 1497 2591 
Q 1319 2344 1212 1994 
Q 1106 1644 1106 1300 
Q 1106 863 1306 627 
Q 1506 391 1875 391 
Q 2147 391 2380 519 
Q 2613 647 2778 891 
Q 2956 1147 3065 1494 
Q 3175 1841 3175 2156 
z
M 1394 2969 
Q 1625 3272 1939 3428 
Q 2253 3584 2638 3584 
Q 3175 3584 3472 3232 
Q 3769 2881 3769 2247 
Q 3769 1728 3584 1258 
Q 3400 788 3053 416 
Q 2822 169 2531 39 
Q 2241 -91 1919 -91 
Q 1547 -91 1294 64 
Q 1041 219 916 525 
L 556 -1331 
L -19 -1331 
L 922 3500 
L 1497 3500 
L 1394 2969 
z
" transform="scale(0.015625)"/>
      <path id="DejaVuSans-2243" d="M 4684 3163 
L 4684 2606 
Q 4356 2359 4076 2251 
Q 3797 2144 3494 2144 
Q 3150 2144 2694 2328 
L 2641 2350 
Q 2622 2356 2575 2375 
Q 2091 2566 1797 2566 
Q 1522 2566 1253 2447 
Q 984 2328 678 2069 
L 678 2625 
Q 1006 2869 1286 2976 
Q 1566 3084 1869 3084 
Q 2213 3084 2672 2900 
L 2719 2881 
L 2788 2853 
Q 3272 2663 3566 2663 
Q 3834 2663 4098 2780 
Q 4363 2897 4684 3163 
z
M 678 1631 
L 4684 1631 
L 4684 1100 
L 678 1100 
L 678 1631 
z
" transform="scale(0.015625)"/>
      <path id="DejaVuSans-Oblique-69" d="M 1172 4863 
L 1747 4863 
L 1606 4134 
L 1031 4134 
L 1172 4863 
z
M 909 3500 
L 1484 3500 
L 800 0 
L 225 0 
L 909 3500 
z
" transform="scale(0.015625)"/>
      <path id="DejaVuSans-Oblique-73" d="M 3200 3397 
L 3091 2853 
Q 2863 2978 2609 3040 
Q 2356 3103 2088 3103 
Q 1634 3103 1373 2948 
Q 1113 2794 1113 2528 
Q 1113 2219 1719 2053 
Q 1766 2041 1788 2034 
L 1972 1978 
Q 2547 1819 2739 1644 
Q 2931 1469 2931 1166 
Q 2931 609 2489 259 
Q 2047 -91 1331 -91 
Q 1053 -91 747 -37 
Q 441 16 72 128 
L 184 722 
Q 500 559 806 475 
Q 1113 391 1394 391 
Q 1816 391 2080 572 
Q 2344 753 2344 1031 
Q 2344 1331 1650 1516 
L 1591 1531 
L 1394 1581 
Q 956 1697 753 1886 
Q 550 2075 550 2369 
Q 550 2928 970 3256 
Q 1391 3584 2113 3584 
Q 2397 3584 2667 3537 
Q 2938 3491 3200 3397 
z
" transform="scale(0.015625)"/>
     </defs>
     <use xlink:href="#DejaVuSans-2016" transform="translate(0 0.578125)"/>
     <use xlink:href="#DejaVuSans-2207" transform="translate(50 0.578125)"/>
     <use xlink:href="#STIXNonUnicode-Italic-e238" transform="translate(116.894531 0.578125)"/>
     <use xlink:href="#DejaVuSans-Oblique-45" transform="translate(187.15155 -15.828125) scale(0.7)"/>
     <use xlink:href="#DejaVuSans-Oblique-6d" transform="translate(231.380066 -15.828125) scale(0.7)"/>
     <use xlink:href="#DejaVuSans-Oblique-70" transform="translate(299.568542 -15.828125) scale(0.7)"/>
     <use xlink:href="#DejaVuSans-2016" transform="translate(346.736511 0.578125)"/>
     <use xlink:href="#DejaVuSans-32" transform="translate(397.693542 -15.828125) scale(0.7)"/>
     <use xlink:href="#DejaVuSans-2243" transform="translate(464.446472 0.578125)"/>
     <use xlink:href="#DejaVuSans-Oblique-3bb" transform="translate(567.717957 0.578125)"/>
     <use xlink:href="#DejaVuSans-2016" transform="translate(626.897644 0.578125)"/>
     <use xlink:href="#DejaVuSans-2207" transform="translate(676.897644 0.578125)"/>
     <use xlink:href="#STIXNonUnicode-Italic-e238" transform="translate(743.792175 0.578125)"/>
     <use xlink:href="#DejaVuSans-Oblique-46" transform="translate(814.049194 -15.828125) scale(0.7)"/>
     <use xlink:href="#DejaVuSans-Oblique-69" transform="translate(854.312866 -15.828125) scale(0.7)"/>
     <use xlink:href="#DejaVuSans-Oblique-73" transform="translate(873.761108 -15.828125) scale(0.7)"/>
     <use xlink:href="#DejaVuSans-2016" transform="translate(912.96521 0.578125)"/>
     <use xlink:href="#DejaVuSans-32" transform="translate(963.922241 -15.828125) scale(0.7)"/>
    </g>
   </g>
   <g id="text_7">
    <!-- Gradient Matching en Espacio de Parámetros -->
    <g style="fill: #262626" transform="translate(126.360562 21.597187) scale(0.18 -0.18)">
     <defs>
      <path id="DejaVuSans-45" d="M 628 4666 
L 3578 4666 
L 3578 4134 
L 1259 4134 
L 1259 2753 
L 3481 2753 
L 3481 2222 
L 1259 2222 
L 1259 531 
L 3634 531 
L 3634 0 
L 628 0 
L 628 4666 
z
" transform="scale(0.015625)"/>
      <path id="DejaVuSans-73" d="M 2834 3397 
L 2834 2853 
Q 2591 2978 2328 3040 
Q 2066 3103 1784 3103 
Q 1356 3103 1142 2972 
Q 928 2841 928 2578 
Q 928 2378 1081 2264 
Q 1234 2150 1697 2047 
L 1894 2003 
Q 2506 1872 2764 1633 
Q 3022 1394 3022 966 
Q 3022 478 2636 193 
Q 2250 -91 1575 -91 
Q 1294 -91 989 -36 
Q 684 19 347 128 
L 347 722 
Q 666 556 975 473 
Q 1284 391 1588 391 
Q 1994 391 2212 530 
Q 2431 669 2431 922 
Q 2431 1156 2273 1281 
Q 2116 1406 1581 1522 
L 1381 1569 
Q 847 1681 609 1914 
Q 372 2147 372 2553 
Q 372 3047 722 3315 
Q 1072 3584 1716 3584 
Q 2034 3584 2315 3537 
Q 2597 3491 2834 3397 
z
" transform="scale(0.015625)"/>
      <path id="DejaVuSans-70" d="M 1159 525 
L 1159 -1331 
L 581 -1331 
L 581 3500 
L 1159 3500 
L 1159 2969 
Q 1341 3281 1617 3432 
Q 1894 3584 2278 3584 
Q 2916 3584 3314 3078 
Q 3713 2572 3713 1747 
Q 3713 922 3314 415 
Q 2916 -91 2278 -91 
Q 1894 -91 1617 61 
Q 1341 213 1159 525 
z
M 3116 1747 
Q 3116 2381 2855 2742 
Q 2594 3103 2138 3103 
Q 1681 3103 1420 2742 
Q 1159 2381 1159 1747 
Q 1159 1113 1420 752 
Q 1681 391 2138 391 
Q 2594 391 2855 752 
Q 3116 1113 3116 1747 
z
" transform="scale(0.015625)"/>
     </defs>
     <use xlink:href="#DejaVuSans-47"/>
     <use xlink:href="#DejaVuSans-72" transform="translate(77.490234 0)"/>
     <use xlink:href="#DejaVuSans-61" transform="translate(118.603516 0)"/>
     <use xlink:href="#DejaVuSans-64" transform="translate(179.882812 0)"/>
     <use xlink:href="#DejaVuSans-69" transform="translate(243.359375 0)"/>
     <use xlink:href="#DejaVuSans-65" transform="translate(271.142578 0)"/>
     <use xlink:href="#DejaVuSans-6e" transform="translate(332.666016 0)"/>
     <use xlink:href="#DejaVuSans-74" transform="translate(396.044922 0)"/>
     <use xlink:href="#DejaVuSans-20" transform="translate(435.253906 0)"/>
     <use xlink:href="#DejaVuSans-4d" transform="translate(467.041016 0)"/>
     <use xlink:href="#DejaVuSans-61" transform="translate(553.320312 0)"/>
     <use xlink:href="#DejaVuSans-74" transform="translate(614.599609 0)"/>
     <use xlink:href="#DejaVuSans-63" transform="translate(653.808594 0)"/>
     <use xlink:href="#DejaVuSans-68" transform="translate(708.789062 0)"/>
     <use xlink:href="#DejaVuSans-69" transform="translate(772.167969 0)"/>
     <use xlink:href="#DejaVuSans-6e" transform="translate(799.951172 0)"/>
     <use xlink:href="#DejaVuSans-67" transform="translate(863.330078 0)"/>
     <use xlink:href="#DejaVuSans-20" transform="translate(926.806641 0)"/>
     <use xlink:href="#DejaVuSans-65" transform="translate(958.59375 0)"/>
     <use xlink:href="#DejaVuSans-6e" transform="translate(1020.117188 0)"/>
     <use xlink:href="#DejaVuSans-20" transform="translate(1083.496094 0)"/>
     <use xlink:href="#DejaVuSans-45" transform="translate(1115.283203 0)"/>
     <use xlink:href="#DejaVuSans-73" transform="translate(1178.466797 0)"/>
     <use xlink:href="#DejaVuSans-70" transform="translate(1230.566406 0)"/>
     <use xlink:href="#DejaVuSans-61" transform="translate(1294.042969 0)"/>
     <use xlink:href="#DejaVuSans-63" transform="translate(1355.322266 0)"/>
     <use xlink:href="#DejaVuSans-69" transform="translate(1410.302734 0)"/>
     <use xlink:href="#DejaVuSans-6f" transform="translate(1438.085938 0)"/>
     <use xlink:href="#DejaVuSans-20" transform="translate(1499.267578 0)"/>
     <use xlink:href="#DejaVuSans-64" transform="translate(1531.054688 0)"/>
     <use xlink:href="#DejaVuSans-65" transform="translate(1594.53125 0)"/>
     <use xlink:href="#DejaVuSans-20" transform="translate(1656.054688 0)"/>
     <use xlink:href="#DejaVuSans-50" transform="translate(1687.841797 0)"/>
     <use xlink:href="#DejaVuSans-61" transform="translate(1743.644531 0)"/>
     <use xlink:href="#DejaVuSans-72" transform="translate(1804.923828 0)"/>
     <use xlink:href="#DejaVuSans-e1" transform="translate(1846.037109 0)"/>
     <use xlink:href="#DejaVuSans-6d" transform="translate(1907.316406 0)"/>
     <use xlink:href="#DejaVuSans-65" transform="translate(2004.728516 0)"/>
     <use xlink:href="#DejaVuSans-74" transform="translate(2066.251953 0)"/>
     <use xlink:href="#DejaVuSans-72" transform="translate(2105.460938 0)"/>
     <use xlink:href="#DejaVuSans-6f" transform="translate(2144.324219 0)"/>
     <use xlink:href="#DejaVuSans-73" transform="translate(2205.505859 0)"/>
    </g>
   </g>
   <g id="Quiver_1">
    <defs>
     <path id="me117279e8e" d="M 1.740715 1.615115 
L -72.770448 81.920676 
L -67.673902 83.410191 
L -89.0472 95.972 
L -78.118195 73.7195 
L -76.251879 78.690446 
L -1.740715 -1.615115 
L 1.740715 1.615115 
"/>
    </defs>
    <g clip-path="url(#p93925e7559)">
     <use xlink:href="#me117279e8e" x="507.6384" y="113.374787" style="fill: #4682b4"/>
    </g>
   </g>
   <g id="Quiver_2">
    <defs>
     <path id="m64643a948d" d="M -0.378968 2.344157 
L -133.630037 -19.197854 
L -132.043816 -14.130573 
L -154.34848 -24.95272 
L -129.77001 -28.195513 
L -132.872102 -23.886168 
L 0.378968 -2.344157 
L -0.378968 2.344157 
"/>
    </defs>
    <g clip-path="url(#p93925e7559)">
     <use xlink:href="#m64643a948d" x="507.6384" y="113.374787" style="fill: #ff8c00"/>
    </g>
   </g>
   <g id="Quiver_3">
    <defs>
     <path id="m81b2af8a0d" d="M 0.997702 3.419303 
L -211.624247 65.459261 
L -206.209538 71.300166 
L -243.39568 71.01928 
L -212.195753 50.784345 
L -213.619652 58.620654 
L -0.997702 -3.419303 
L 0.997702 3.419303 
"/>
    </defs>
    <g clip-path="url(#p93925e7559)">
     <use xlink:href="#m81b2af8a0d" x="507.6384" y="113.374787" style="fill: #e91e63"/>
    </g>
   </g>
   <g id="PathCollection_1">
    <defs>
     <path id="m151bf025ab" d="M 0 3.872983 
C 1.027127 3.872983 2.012324 3.464901 2.738613 2.738613 
C 3.464901 2.012324 3.872983 1.027127 3.872983 0 
C 3.872983 -1.027127 3.464901 -2.012324 2.738613 -2.738613 
C 2.012324 -3.464901 1.027127 -3.872983 0 -3.872983 
C -1.027127 -3.872983 -2.012324 -3.464901 -2.738613 -2.738613 
C -3.464901 -2.012324 -3.872983 -1.027127 -3.872983 0 
C -3.872983 1.027127 -3.464901 2.012324 -2.738613 2.738613 
C -2.012324 3.464901 -1.027127 3.872983 0 3.872983 
z
" style="stroke: #000000"/>
    </defs>
    <g clip-path="url(#p93925e7559)">
     <use xlink:href="#m151bf025ab" x="507.6384" y="113.374787" style="stroke: #000000"/>
    </g>
   </g>
   <g id="legend_1">
    <g id="patch_8">
     <path d="M 45.22 72.614375 
L 232.72 72.614375 
Q 235.72 72.614375 235.72 69.614375 
L 235.72 49.097187 
Q 235.72 46.097187 232.72 46.097187 
L 45.22 46.097187 
Q 42.22 46.097187 42.22 49.097187 
L 42.22 69.614375 
Q 42.22 72.614375 45.22 72.614375 
z
" style="fill: #4d4d4d; opacity: 0.5; stroke: #4d4d4d; stroke-linejoin: miter"/>
    </g>
    <g id="patch_9">
     <path d="M 43.22 70.614375 
L 230.72 70.614375 
Q 233.72 70.614375 233.72 67.614375 
L 233.72 47.097187 
Q 233.72 44.097187 230.72 44.097187 
L 43.22 44.097187 
Q 40.22 44.097187 40.22 47.097187 
L 40.22 67.614375 
Q 40.22 70.614375 43.22 70.614375 
z
" style="fill: #ffffff; stroke: #cccccc; stroke-linejoin: miter"/>
    </g>
    <g id="PathCollection_2">
     <g>
      <use xlink:href="#m151bf025ab" x="61.22" y="57.557344" style="stroke: #000000"/>
     </g>
    </g>
    <g id="text_8">
     <!-- Estado actual de $\theta$ -->
     <g style="fill: #262626" transform="translate(88.22 61.494844) scale(0.15 -0.15)">
      <defs>
       <path id="DejaVuSans-75" d="M 544 1381 
L 544 3500 
L 1119 3500 
L 1119 1403 
Q 1119 906 1312 657 
Q 1506 409 1894 409 
Q 2359 409 2629 706 
Q 2900 1003 2900 1516 
L 2900 3500 
L 3475 3500 
L 3475 0 
L 2900 0 
L 2900 538 
Q 2691 219 2414 64 
Q 2138 -91 1772 -91 
Q 1169 -91 856 284 
Q 544 659 544 1381 
z
M 1991 3584 
L 1991 3584 
z
" transform="scale(0.015625)"/>
      </defs>
      <use xlink:href="#DejaVuSans-45" transform="translate(0 0.234375)"/>
      <use xlink:href="#DejaVuSans-73" transform="translate(63.183594 0.234375)"/>
      <use xlink:href="#DejaVuSans-74" transform="translate(115.283203 0.234375)"/>
      <use xlink:href="#DejaVuSans-61" transform="translate(154.492188 0.234375)"/>
      <use xlink:href="#DejaVuSans-64" transform="translate(215.771484 0.234375)"/>
      <use xlink:href="#DejaVuSans-6f" transform="translate(279.248047 0.234375)"/>
      <use xlink:href="#DejaVuSans-20" transform="translate(340.429688 0.234375)"/>
      <use xlink:href="#DejaVuSans-61" transform="translate(372.216797 0.234375)"/>
      <use xlink:href="#DejaVuSans-63" transform="translate(433.496094 0.234375)"/>
      <use xlink:href="#DejaVuSans-74" transform="translate(488.476562 0.234375)"/>
      <use xlink:href="#DejaVuSans-75" transform="translate(527.685547 0.234375)"/>
      <use xlink:href="#DejaVuSans-61" transform="translate(591.064453 0.234375)"/>
      <use xlink:href="#DejaVuSans-6c" transform="translate(652.34375 0.234375)"/>
      <use xlink:href="#DejaVuSans-20" transform="translate(680.126953 0.234375)"/>
      <use xlink:href="#DejaVuSans-64" transform="translate(711.914062 0.234375)"/>
      <use xlink:href="#DejaVuSans-65" transform="translate(775.390625 0.234375)"/>
      <use xlink:href="#DejaVuSans-20" transform="translate(836.914062 0.234375)"/>
      <use xlink:href="#DejaVuSans-Oblique-3b8" transform="translate(868.701172 0.234375)"/>
     </g>
    </g>
   </g>
  </g>
 </g>
 <defs>
  <clipPath id="p93925e7559">
   <rect x="32.72" y="36.597187" width="593.648" height="383.888"/>
  </clipPath>
 </defs>
</svg>
