<?xml version="1.0" encoding="utf-8" standalone="no"?>
<!DOCTYPE svg PUBLIC "-//W3C//DTD SVG 1.1//EN"
  "http://www.w3.org/Graphics/SVG/1.1/DTD/svg11.dtd">
<svg xmlns:xlink="http://www.w3.org/1999/xlink" width="636.510469pt" height="453.343125pt" viewBox="0 0 636.510469 453.343125" xmlns="http://www.w3.org/2000/svg" version="1.1">
 <metadata>
  <rdf:RDF xmlns:dc="http://purl.org/dc/elements/1.1/" xmlns:cc="http://creativecommons.org/ns#" xmlns:rdf="http://www.w3.org/1999/02/22-rdf-syntax-ns#">
   <cc:Work>
    <dc:type rdf:resource="http://purl.org/dc/dcmitype/StillImage"/>
    <dc:date>2026-05-22T17:21:40.404999</dc:date>
    <dc:format>image/svg+xml</dc:format>
    <dc:creator>
     <cc:Agent>
      <dc:title>Matplotlib v3.10.0, https://matplotlib.org/</dc:title>
     </cc:Agent>
    </dc:creator>
   </cc:Work>
  </rdf:RDF>
 </metadata>
 <defs>
  <style type="text/css">*{stroke-linejoin: round; stroke-linecap: butt}</style>
 </defs>
 <g id="figure_1">
  <g id="patch_1">
   <path d="M 0 453.343125 
L 636.510469 453.343125 
L 636.510469 0 
L 0 0 
z
" style="fill: #ffffff"/>
  </g>
  <g id="axes_1">
   <g id="patch_2">
    <path d="M 60.960469 408.417188 
L 629.310469 408.417188 
L 629.310469 35.877187 
L 60.960469 35.877187 
z
" style="fill: #ffffff"/>
   </g>
   <g id="matplotlib.axis_1">
    <g id="xtick_1">
     <g id="line2d_1">
      <path d="M 60.960469 408.417188 
L 60.960469 35.877187 
" clip-path="url(#p06682d79c5)" style="fill: none; stroke: #cccccc; stroke-linecap: round"/>
     </g>
     <g id="line2d_2">
      <defs>
       <path id="m84d94d99bf" d="M 0 0 
L 0 6 
" style="stroke: #d3d3d3; stroke-width: 1.25"/>
      </defs>
      <g>
       <use xlink:href="#m84d94d99bf" x="60.960469" y="408.417188" style="fill: #d3d3d3; stroke: #d3d3d3; stroke-width: 1.25"/>
      </g>
     </g>
     <g id="text_1">
      <!-- 0 -->
      <g style="fill: #262626" transform="translate(57.461094 426.275469) scale(0.11 -0.11)">
       <defs>
        <path id="DejaVuSans-30" d="M 2034 4250 
Q 1547 4250 1301 3770 
Q 1056 3291 1056 2328 
Q 1056 1369 1301 889 
Q 1547 409 2034 409 
Q 2525 409 2770 889 
Q 3016 1369 3016 2328 
Q 3016 3291 2770 3770 
Q 2525 4250 2034 4250 
z
M 2034 4750 
Q 2819 4750 3233 4129 
Q 3647 3509 3647 2328 
Q 3647 1150 3233 529 
Q 2819 -91 2034 -91 
Q 1250 -91 836 529 
Q 422 1150 422 2328 
Q 422 3509 836 4129 
Q 1250 4750 2034 4750 
z
" transform="scale(0.015625)"/>
       </defs>
       <use xlink:href="#DejaVuSans-30"/>
      </g>
     </g>
    </g>
    <g id="xtick_2">
     <g id="line2d_3">
      <path d="M 151.416181 408.417188 
L 151.416181 35.877187 
" clip-path="url(#p06682d79c5)" style="fill: none; stroke: #cccccc; stroke-linecap: round"/>
     </g>
     <g id="line2d_4">
      <g>
       <use xlink:href="#m84d94d99bf" x="151.416181" y="408.417188" style="fill: #d3d3d3; stroke: #d3d3d3; stroke-width: 1.25"/>
      </g>
     </g>
     <g id="text_2">
      <!-- 1 -->
      <g style="fill: #262626" transform="translate(147.916806 426.275469) scale(0.11 -0.11)">
       <defs>
        <path id="DejaVuSans-31" d="M 794 531 
L 1825 531 
L 1825 4091 
L 703 3866 
L 703 4441 
L 1819 4666 
L 2450 4666 
L 2450 531 
L 3481 531 
L 3481 0 
L 794 0 
L 794 531 
z
" transform="scale(0.015625)"/>
       </defs>
       <use xlink:href="#DejaVuSans-31"/>
      </g>
     </g>
    </g>
    <g id="xtick_3">
     <g id="line2d_5">
      <path d="M 241.871893 408.417188 
L 241.871893 35.877187 
" clip-path="url(#p06682d79c5)" style="fill: none; stroke: #cccccc; stroke-linecap: round"/>
     </g>
     <g id="line2d_6">
      <g>
       <use xlink:href="#m84d94d99bf" x="241.871893" y="408.417188" style="fill: #d3d3d3; stroke: #d3d3d3; stroke-width: 1.25"/>
      </g>
     </g>
     <g id="text_3">
      <!-- 2 -->
      <g style="fill: #262626" transform="translate(238.372518 426.275469) scale(0.11 -0.11)">
       <defs>
        <path id="DejaVuSans-32" d="M 1228 531 
L 3431 531 
L 3431 0 
L 469 0 
L 469 531 
Q 828 903 1448 1529 
Q 2069 2156 2228 2338 
Q 2531 2678 2651 2914 
Q 2772 3150 2772 3378 
Q 2772 3750 2511 3984 
Q 2250 4219 1831 4219 
Q 1534 4219 1204 4116 
Q 875 4013 500 3803 
L 500 4441 
Q 881 4594 1212 4672 
Q 1544 4750 1819 4750 
Q 2544 4750 2975 4387 
Q 3406 4025 3406 3419 
Q 3406 3131 3298 2873 
Q 3191 2616 2906 2266 
Q 2828 2175 2409 1742 
Q 1991 1309 1228 531 
z
" transform="scale(0.015625)"/>
       </defs>
       <use xlink:href="#DejaVuSans-32"/>
      </g>
     </g>
    </g>
    <g id="xtick_4">
     <g id="line2d_7">
      <path d="M 332.327604 408.417188 
L 332.327604 35.877187 
" clip-path="url(#p06682d79c5)" style="fill: none; stroke: #cccccc; stroke-linecap: round"/>
     </g>
     <g id="line2d_8">
      <g>
       <use xlink:href="#m84d94d99bf" x="332.327604" y="408.417188" style="fill: #d3d3d3; stroke: #d3d3d3; stroke-width: 1.25"/>
      </g>
     </g>
     <g id="text_4">
      <!-- 3 -->
      <g style="fill: #262626" transform="translate(328.828229 426.275469) scale(0.11 -0.11)">
       <defs>
        <path id="DejaVuSans-33" d="M 2597 2516 
Q 3050 2419 3304 2112 
Q 3559 1806 3559 1356 
Q 3559 666 3084 287 
Q 2609 -91 1734 -91 
Q 1441 -91 1130 -33 
Q 819 25 488 141 
L 488 750 
Q 750 597 1062 519 
Q 1375 441 1716 441 
Q 2309 441 2620 675 
Q 2931 909 2931 1356 
Q 2931 1769 2642 2001 
Q 2353 2234 1838 2234 
L 1294 2234 
L 1294 2753 
L 1863 2753 
Q 2328 2753 2575 2939 
Q 2822 3125 2822 3475 
Q 2822 3834 2567 4026 
Q 2313 4219 1838 4219 
Q 1578 4219 1281 4162 
Q 984 4106 628 3988 
L 628 4550 
Q 988 4650 1302 4700 
Q 1616 4750 1894 4750 
Q 2613 4750 3031 4423 
Q 3450 4097 3450 3541 
Q 3450 3153 3228 2886 
Q 3006 2619 2597 2516 
z
" transform="scale(0.015625)"/>
       </defs>
       <use xlink:href="#DejaVuSans-33"/>
      </g>
     </g>
    </g>
    <g id="xtick_5">
     <g id="line2d_9">
      <path d="M 422.783316 408.417188 
L 422.783316 35.877187 
" clip-path="url(#p06682d79c5)" style="fill: none; stroke: #cccccc; stroke-linecap: round"/>
     </g>
     <g id="line2d_10">
      <g>
       <use xlink:href="#m84d94d99bf" x="422.783316" y="408.417188" style="fill: #d3d3d3; stroke: #d3d3d3; stroke-width: 1.25"/>
      </g>
     </g>
     <g id="text_5">
      <!-- 4 -->
      <g style="fill: #262626" transform="translate(419.283941 426.275469) scale(0.11 -0.11)">
       <defs>
        <path id="DejaVuSans-34" d="M 2419 4116 
L 825 1625 
L 2419 1625 
L 2419 4116 
z
M 2253 4666 
L 3047 4666 
L 3047 1625 
L 3713 1625 
L 3713 1100 
L 3047 1100 
L 3047 0 
L 2419 0 
L 2419 1100 
L 313 1100 
L 313 1709 
L 2253 4666 
z
" transform="scale(0.015625)"/>
       </defs>
       <use xlink:href="#DejaVuSans-34"/>
      </g>
     </g>
    </g>
    <g id="xtick_6">
     <g id="line2d_11">
      <path d="M 513.239028 408.417188 
L 513.239028 35.877187 
" clip-path="url(#p06682d79c5)" style="fill: none; stroke: #cccccc; stroke-linecap: round"/>
     </g>
     <g id="line2d_12">
      <g>
       <use xlink:href="#m84d94d99bf" x="513.239028" y="408.417188" style="fill: #d3d3d3; stroke: #d3d3d3; stroke-width: 1.25"/>
      </g>
     </g>
     <g id="text_6">
      <!-- 5 -->
      <g style="fill: #262626" transform="translate(509.739653 426.275469) scale(0.11 -0.11)">
       <defs>
        <path id="DejaVuSans-35" d="M 691 4666 
L 3169 4666 
L 3169 4134 
L 1269 4134 
L 1269 2991 
Q 1406 3038 1543 3061 
Q 1681 3084 1819 3084 
Q 2600 3084 3056 2656 
Q 3513 2228 3513 1497 
Q 3513 744 3044 326 
Q 2575 -91 1722 -91 
Q 1428 -91 1123 -41 
Q 819 9 494 109 
L 494 744 
Q 775 591 1075 516 
Q 1375 441 1709 441 
Q 2250 441 2565 725 
Q 2881 1009 2881 1497 
Q 2881 1984 2565 2268 
Q 2250 2553 1709 2553 
Q 1456 2553 1204 2497 
Q 953 2441 691 2322 
L 691 4666 
z
" transform="scale(0.015625)"/>
       </defs>
       <use xlink:href="#DejaVuSans-35"/>
      </g>
     </g>
    </g>
    <g id="xtick_7">
     <g id="line2d_13">
      <path d="M 603.69474 408.417188 
L 603.69474 35.877187 
" clip-path="url(#p06682d79c5)" style="fill: none; stroke: #cccccc; stroke-linecap: round"/>
     </g>
     <g id="line2d_14">
      <g>
       <use xlink:href="#m84d94d99bf" x="603.69474" y="408.417188" style="fill: #d3d3d3; stroke: #d3d3d3; stroke-width: 1.25"/>
      </g>
     </g>
     <g id="text_7">
      <!-- 6 -->
      <g style="fill: #262626" transform="translate(600.195365 426.275469) scale(0.11 -0.11)">
       <defs>
        <path id="DejaVuSans-36" d="M 2113 2584 
Q 1688 2584 1439 2293 
Q 1191 2003 1191 1497 
Q 1191 994 1439 701 
Q 1688 409 2113 409 
Q 2538 409 2786 701 
Q 3034 994 3034 1497 
Q 3034 2003 2786 2293 
Q 2538 2584 2113 2584 
z
M 3366 4563 
L 3366 3988 
Q 3128 4100 2886 4159 
Q 2644 4219 2406 4219 
Q 1781 4219 1451 3797 
Q 1122 3375 1075 2522 
Q 1259 2794 1537 2939 
Q 1816 3084 2150 3084 
Q 2853 3084 3261 2657 
Q 3669 2231 3669 1497 
Q 3669 778 3244 343 
Q 2819 -91 2113 -91 
Q 1303 -91 875 529 
Q 447 1150 447 2328 
Q 447 3434 972 4092 
Q 1497 4750 2381 4750 
Q 2619 4750 2861 4703 
Q 3103 4656 3366 4563 
z
" transform="scale(0.015625)"/>
       </defs>
       <use xlink:href="#DejaVuSans-36"/>
      </g>
     </g>
    </g>
    <g id="text_8">
     <!-- Espacio de entrada $x$ -->
     <g style="fill: #262626" transform="translate(271.285469 443.203125) scale(0.14 -0.14)">
      <defs>
       <path id="DejaVuSans-45" d="M 628 4666 
L 3578 4666 
L 3578 4134 
L 1259 4134 
L 1259 2753 
L 3481 2753 
L 3481 2222 
L 1259 2222 
L 1259 531 
L 3634 531 
L 3634 0 
L 628 0 
L 628 4666 
z
" transform="scale(0.015625)"/>
       <path id="DejaVuSans-73" d="M 2834 3397 
L 2834 2853 
Q 2591 2978 2328 3040 
Q 2066 3103 1784 3103 
Q 1356 3103 1142 2972 
Q 928 2841 928 2578 
Q 928 2378 1081 2264 
Q 1234 2150 1697 2047 
L 1894 2003 
Q 2506 1872 2764 1633 
Q 3022 1394 3022 966 
Q 3022 478 2636 193 
Q 2250 -91 1575 -91 
Q 1294 -91 989 -36 
Q 684 19 347 128 
L 347 722 
Q 666 556 975 473 
Q 1284 391 1588 391 
Q 1994 391 2212 530 
Q 2431 669 2431 922 
Q 2431 1156 2273 1281 
Q 2116 1406 1581 1522 
L 1381 1569 
Q 847 1681 609 1914 
Q 372 2147 372 2553 
Q 372 3047 722 3315 
Q 1072 3584 1716 3584 
Q 2034 3584 2315 3537 
Q 2597 3491 2834 3397 
z
" transform="scale(0.015625)"/>
       <path id="DejaVuSans-70" d="M 1159 525 
L 1159 -1331 
L 581 -1331 
L 581 3500 
L 1159 3500 
L 1159 2969 
Q 1341 3281 1617 3432 
Q 1894 3584 2278 3584 
Q 2916 3584 3314 3078 
Q 3713 2572 3713 1747 
Q 3713 922 3314 415 
Q 2916 -91 2278 -91 
Q 1894 -91 1617 61 
Q 1341 213 1159 525 
z
M 3116 1747 
Q 3116 2381 2855 2742 
Q 2594 3103 2138 3103 
Q 1681 3103 1420 2742 
Q 1159 2381 1159 1747 
Q 1159 1113 1420 752 
Q 1681 391 2138 391 
Q 2594 391 2855 752 
Q 3116 1113 3116 1747 
z
" transform="scale(0.015625)"/>
       <path id="DejaVuSans-61" d="M 2194 1759 
Q 1497 1759 1228 1600 
Q 959 1441 959 1056 
Q 959 750 1161 570 
Q 1363 391 1709 391 
Q 2188 391 2477 730 
Q 2766 1069 2766 1631 
L 2766 1759 
L 2194 1759 
z
M 3341 1997 
L 3341 0 
L 2766 0 
L 2766 531 
Q 2569 213 2275 61 
Q 1981 -91 1556 -91 
Q 1019 -91 701 211 
Q 384 513 384 1019 
Q 384 1609 779 1909 
Q 1175 2209 1959 2209 
L 2766 2209 
L 2766 2266 
Q 2766 2663 2505 2880 
Q 2244 3097 1772 3097 
Q 1472 3097 1187 3025 
Q 903 2953 641 2809 
L 641 3341 
Q 956 3463 1253 3523 
Q 1550 3584 1831 3584 
Q 2591 3584 2966 3190 
Q 3341 2797 3341 1997 
z
" transform="scale(0.015625)"/>
       <path id="DejaVuSans-63" d="M 3122 3366 
L 3122 2828 
Q 2878 2963 2633 3030 
Q 2388 3097 2138 3097 
Q 1578 3097 1268 2742 
Q 959 2388 959 1747 
Q 959 1106 1268 751 
Q 1578 397 2138 397 
Q 2388 397 2633 464 
Q 2878 531 3122 666 
L 3122 134 
Q 2881 22 2623 -34 
Q 2366 -91 2075 -91 
Q 1284 -91 818 406 
Q 353 903 353 1747 
Q 353 2603 823 3093 
Q 1294 3584 2113 3584 
Q 2378 3584 2631 3529 
Q 2884 3475 3122 3366 
z
" transform="scale(0.015625)"/>
       <path id="DejaVuSans-69" d="M 603 3500 
L 1178 3500 
L 1178 0 
L 603 0 
L 603 3500 
z
M 603 4863 
L 1178 4863 
L 1178 4134 
L 603 4134 
L 603 4863 
z
" transform="scale(0.015625)"/>
       <path id="DejaVuSans-6f" d="M 1959 3097 
Q 1497 3097 1228 2736 
Q 959 2375 959 1747 
Q 959 1119 1226 758 
Q 1494 397 1959 397 
Q 2419 397 2687 759 
Q 2956 1122 2956 1747 
Q 2956 2369 2687 2733 
Q 2419 3097 1959 3097 
z
M 1959 3584 
Q 2709 3584 3137 3096 
Q 3566 2609 3566 1747 
Q 3566 888 3137 398 
Q 2709 -91 1959 -91 
Q 1206 -91 779 398 
Q 353 888 353 1747 
Q 353 2609 779 3096 
Q 1206 3584 1959 3584 
z
" transform="scale(0.015625)"/>
       <path id="DejaVuSans-20" transform="scale(0.015625)"/>
       <path id="DejaVuSans-64" d="M 2906 2969 
L 2906 4863 
L 3481 4863 
L 3481 0 
L 2906 0 
L 2906 525 
Q 2725 213 2448 61 
Q 2172 -91 1784 -91 
Q 1150 -91 751 415 
Q 353 922 353 1747 
Q 353 2572 751 3078 
Q 1150 3584 1784 3584 
Q 2172 3584 2448 3432 
Q 2725 3281 2906 2969 
z
M 947 1747 
Q 947 1113 1208 752 
Q 1469 391 1925 391 
Q 2381 391 2643 752 
Q 2906 1113 2906 1747 
Q 2906 2381 2643 2742 
Q 2381 3103 1925 3103 
Q 1469 3103 1208 2742 
Q 947 2381 947 1747 
z
" transform="scale(0.015625)"/>
       <path id="DejaVuSans-65" d="M 3597 1894 
L 3597 1613 
L 953 1613 
Q 991 1019 1311 708 
Q 1631 397 2203 397 
Q 2534 397 2845 478 
Q 3156 559 3463 722 
L 3463 178 
Q 3153 47 2828 -22 
Q 2503 -91 2169 -91 
Q 1331 -91 842 396 
Q 353 884 353 1716 
Q 353 2575 817 3079 
Q 1281 3584 2069 3584 
Q 2775 3584 3186 3129 
Q 3597 2675 3597 1894 
z
M 3022 2063 
Q 3016 2534 2758 2815 
Q 2500 3097 2075 3097 
Q 1594 3097 1305 2825 
Q 1016 2553 972 2059 
L 3022 2063 
z
" transform="scale(0.015625)"/>
       <path id="DejaVuSans-6e" d="M 3513 2113 
L 3513 0 
L 2938 0 
L 2938 2094 
Q 2938 2591 2744 2837 
Q 2550 3084 2163 3084 
Q 1697 3084 1428 2787 
Q 1159 2491 1159 1978 
L 1159 0 
L 581 0 
L 581 3500 
L 1159 3500 
L 1159 2956 
Q 1366 3272 1645 3428 
Q 1925 3584 2291 3584 
Q 2894 3584 3203 3211 
Q 3513 2838 3513 2113 
z
" transform="scale(0.015625)"/>
       <path id="DejaVuSans-74" d="M 1172 4494 
L 1172 3500 
L 2356 3500 
L 2356 3053 
L 1172 3053 
L 1172 1153 
Q 1172 725 1289 603 
Q 1406 481 1766 481 
L 2356 481 
L 2356 0 
L 1766 0 
Q 1100 0 847 248 
Q 594 497 594 1153 
L 594 3053 
L 172 3053 
L 172 3500 
L 594 3500 
L 594 4494 
L 1172 4494 
z
" transform="scale(0.015625)"/>
       <path id="DejaVuSans-72" d="M 2631 2963 
Q 2534 3019 2420 3045 
Q 2306 3072 2169 3072 
Q 1681 3072 1420 2755 
Q 1159 2438 1159 1844 
L 1159 0 
L 581 0 
L 581 3500 
L 1159 3500 
L 1159 2956 
Q 1341 3275 1631 3429 
Q 1922 3584 2338 3584 
Q 2397 3584 2469 3576 
Q 2541 3569 2628 3553 
L 2631 2963 
z
" transform="scale(0.015625)"/>
       <path id="DejaVuSans-Oblique-78" d="M 3841 3500 
L 2234 1784 
L 3219 0 
L 2559 0 
L 1819 1388 
L 531 0 
L -166 0 
L 1556 1844 
L 641 3500 
L 1300 3500 
L 1972 2234 
L 3144 3500 
L 3841 3500 
z
" transform="scale(0.015625)"/>
      </defs>
      <use xlink:href="#DejaVuSans-45" transform="translate(0 0.015625)"/>
      <use xlink:href="#DejaVuSans-73" transform="translate(63.183594 0.015625)"/>
      <use xlink:href="#DejaVuSans-70" transform="translate(115.283203 0.015625)"/>
      <use xlink:href="#DejaVuSans-61" transform="translate(178.759766 0.015625)"/>
      <use xlink:href="#DejaVuSans-63" transform="translate(240.039062 0.015625)"/>
      <use xlink:href="#DejaVuSans-69" transform="translate(295.019531 0.015625)"/>
      <use xlink:href="#DejaVuSans-6f" transform="translate(322.802734 0.015625)"/>
      <use xlink:href="#DejaVuSans-20" transform="translate(383.984375 0.015625)"/>
      <use xlink:href="#DejaVuSans-64" transform="translate(415.771484 0.015625)"/>
      <use xlink:href="#DejaVuSans-65" transform="translate(479.248047 0.015625)"/>
      <use xlink:href="#DejaVuSans-20" transform="translate(540.771484 0.015625)"/>
      <use xlink:href="#DejaVuSans-65" transform="translate(572.558594 0.015625)"/>
      <use xlink:href="#DejaVuSans-6e" transform="translate(634.082031 0.015625)"/>
      <use xlink:href="#DejaVuSans-74" transform="translate(697.460938 0.015625)"/>
      <use xlink:href="#DejaVuSans-72" transform="translate(736.669922 0.015625)"/>
      <use xlink:href="#DejaVuSans-61" transform="translate(777.783203 0.015625)"/>
      <use xlink:href="#DejaVuSans-64" transform="translate(839.0625 0.015625)"/>
      <use xlink:href="#DejaVuSans-61" transform="translate(902.539062 0.015625)"/>
      <use xlink:href="#DejaVuSans-20" transform="translate(963.818359 0.015625)"/>
      <use xlink:href="#DejaVuSans-Oblique-78" transform="translate(995.605469 0.015625)"/>
     </g>
    </g>
   </g>
   <g id="matplotlib.axis_2">
    <g id="ytick_1">
     <g id="line2d_15">
      <path d="M 60.960469 377.372188 
L 629.310469 377.372188 
" clip-path="url(#p06682d79c5)" style="fill: none; stroke: #cccccc; stroke-linecap: round"/>
     </g>
     <g id="line2d_16">
      <defs>
       <path id="m1bfae5f293" d="M 0 0 
L -6 0 
" style="stroke: #d3d3d3; stroke-width: 1.25"/>
      </defs>
      <g>
       <use xlink:href="#m1bfae5f293" x="60.960469" y="377.372188" style="fill: #d3d3d3; stroke: #d3d3d3; stroke-width: 1.25"/>
      </g>
     </g>
     <g id="text_9">
      <!-- −1.5 -->
      <g style="fill: #262626" transform="translate(24.749375 381.551328) scale(0.11 -0.11)">
       <defs>
        <path id="DejaVuSans-2212" d="M 678 2272 
L 4684 2272 
L 4684 1741 
L 678 1741 
L 678 2272 
z
" transform="scale(0.015625)"/>
        <path id="DejaVuSans-2e" d="M 684 794 
L 1344 794 
L 1344 0 
L 684 0 
L 684 794 
z
" transform="scale(0.015625)"/>
       </defs>
       <use xlink:href="#DejaVuSans-2212"/>
       <use xlink:href="#DejaVuSans-31" transform="translate(83.789062 0)"/>
       <use xlink:href="#DejaVuSans-2e" transform="translate(147.412109 0)"/>
       <use xlink:href="#DejaVuSans-35" transform="translate(179.199219 0)"/>
      </g>
     </g>
    </g>
    <g id="ytick_2">
     <g id="line2d_17">
      <path d="M 60.960469 325.630521 
L 629.310469 325.630521 
" clip-path="url(#p06682d79c5)" style="fill: none; stroke: #cccccc; stroke-linecap: round"/>
     </g>
     <g id="line2d_18">
      <g>
       <use xlink:href="#m1bfae5f293" x="60.960469" y="325.630521" style="fill: #d3d3d3; stroke: #d3d3d3; stroke-width: 1.25"/>
      </g>
     </g>
     <g id="text_10">
      <!-- −1.0 -->
      <g style="fill: #262626" transform="translate(24.749375 329.809661) scale(0.11 -0.11)">
       <use xlink:href="#DejaVuSans-2212"/>
       <use xlink:href="#DejaVuSans-31" transform="translate(83.789062 0)"/>
       <use xlink:href="#DejaVuSans-2e" transform="translate(147.412109 0)"/>
       <use xlink:href="#DejaVuSans-30" transform="translate(179.199219 0)"/>
      </g>
     </g>
    </g>
    <g id="ytick_3">
     <g id="line2d_19">
      <path d="M 60.960469 273.888854 
L 629.310469 273.888854 
" clip-path="url(#p06682d79c5)" style="fill: none; stroke: #cccccc; stroke-linecap: round"/>
     </g>
     <g id="line2d_20">
      <g>
       <use xlink:href="#m1bfae5f293" x="60.960469" y="273.888854" style="fill: #d3d3d3; stroke: #d3d3d3; stroke-width: 1.25"/>
      </g>
     </g>
     <g id="text_11">
      <!-- −0.5 -->
      <g style="fill: #262626" transform="translate(24.749375 278.067995) scale(0.11 -0.11)">
       <use xlink:href="#DejaVuSans-2212"/>
       <use xlink:href="#DejaVuSans-30" transform="translate(83.789062 0)"/>
       <use xlink:href="#DejaVuSans-2e" transform="translate(147.412109 0)"/>
       <use xlink:href="#DejaVuSans-35" transform="translate(179.199219 0)"/>
      </g>
     </g>
    </g>
    <g id="ytick_4">
     <g id="line2d_21">
      <path d="M 60.960469 222.147188 
L 629.310469 222.147188 
" clip-path="url(#p06682d79c5)" style="fill: none; stroke: #cccccc; stroke-linecap: round"/>
     </g>
     <g id="line2d_22">
      <g>
       <use xlink:href="#m1bfae5f293" x="60.960469" y="222.147188" style="fill: #d3d3d3; stroke: #d3d3d3; stroke-width: 1.25"/>
      </g>
     </g>
     <g id="text_12">
      <!-- 0.0 -->
      <g style="fill: #262626" transform="translate(33.967031 226.326328) scale(0.11 -0.11)">
       <use xlink:href="#DejaVuSans-30"/>
       <use xlink:href="#DejaVuSans-2e" transform="translate(63.623047 0)"/>
       <use xlink:href="#DejaVuSans-30" transform="translate(95.410156 0)"/>
      </g>
     </g>
    </g>
    <g id="ytick_5">
     <g id="line2d_23">
      <path d="M 60.960469 170.405521 
L 629.310469 170.405521 
" clip-path="url(#p06682d79c5)" style="fill: none; stroke: #cccccc; stroke-linecap: round"/>
     </g>
     <g id="line2d_24">
      <g>
       <use xlink:href="#m1bfae5f293" x="60.960469" y="170.405521" style="fill: #d3d3d3; stroke: #d3d3d3; stroke-width: 1.25"/>
      </g>
     </g>
     <g id="text_13">
      <!-- 0.5 -->
      <g style="fill: #262626" transform="translate(33.967031 174.584661) scale(0.11 -0.11)">
       <use xlink:href="#DejaVuSans-30"/>
       <use xlink:href="#DejaVuSans-2e" transform="translate(63.623047 0)"/>
       <use xlink:href="#DejaVuSans-35" transform="translate(95.410156 0)"/>
      </g>
     </g>
    </g>
    <g id="ytick_6">
     <g id="line2d_25">
      <path d="M 60.960469 118.663854 
L 629.310469 118.663854 
" clip-path="url(#p06682d79c5)" style="fill: none; stroke: #cccccc; stroke-linecap: round"/>
     </g>
     <g id="line2d_26">
      <g>
       <use xlink:href="#m1bfae5f293" x="60.960469" y="118.663854" style="fill: #d3d3d3; stroke: #d3d3d3; stroke-width: 1.25"/>
      </g>
     </g>
     <g id="text_14">
      <!-- 1.0 -->
      <g style="fill: #262626" transform="translate(33.967031 122.842995) scale(0.11 -0.11)">
       <use xlink:href="#DejaVuSans-31"/>
       <use xlink:href="#DejaVuSans-2e" transform="translate(63.623047 0)"/>
       <use xlink:href="#DejaVuSans-30" transform="translate(95.410156 0)"/>
      </g>
     </g>
    </g>
    <g id="ytick_7">
     <g id="line2d_27">
      <path d="M 60.960469 66.922187 
L 629.310469 66.922187 
" clip-path="url(#p06682d79c5)" style="fill: none; stroke: #cccccc; stroke-linecap: round"/>
     </g>
     <g id="line2d_28">
      <g>
       <use xlink:href="#m1bfae5f293" x="60.960469" y="66.922187" style="fill: #d3d3d3; stroke: #d3d3d3; stroke-width: 1.25"/>
      </g>
     </g>
     <g id="text_15">
      <!-- 1.5 -->
      <g style="fill: #262626" transform="translate(33.967031 71.101328) scale(0.11 -0.11)">
       <use xlink:href="#DejaVuSans-31"/>
       <use xlink:href="#DejaVuSans-2e" transform="translate(63.623047 0)"/>
       <use xlink:href="#DejaVuSans-35" transform="translate(95.410156 0)"/>
      </g>
     </g>
    </g>
    <g id="text_16">
     <!-- Amplitud -->
     <g style="fill: #262626" transform="translate(17.837813 253.711719) rotate(-90) scale(0.14 -0.14)">
      <defs>
       <path id="DejaVuSans-41" d="M 2188 4044 
L 1331 1722 
L 3047 1722 
L 2188 4044 
z
M 1831 4666 
L 2547 4666 
L 4325 0 
L 3669 0 
L 3244 1197 
L 1141 1197 
L 716 0 
L 50 0 
L 1831 4666 
z
" transform="scale(0.015625)"/>
       <path id="DejaVuSans-6d" d="M 3328 2828 
Q 3544 3216 3844 3400 
Q 4144 3584 4550 3584 
Q 5097 3584 5394 3201 
Q 5691 2819 5691 2113 
L 5691 0 
L 5113 0 
L 5113 2094 
Q 5113 2597 4934 2840 
Q 4756 3084 4391 3084 
Q 3944 3084 3684 2787 
Q 3425 2491 3425 1978 
L 3425 0 
L 2847 0 
L 2847 2094 
Q 2847 2600 2669 2842 
Q 2491 3084 2119 3084 
Q 1678 3084 1418 2786 
Q 1159 2488 1159 1978 
L 1159 0 
L 581 0 
L 581 3500 
L 1159 3500 
L 1159 2956 
Q 1356 3278 1631 3431 
Q 1906 3584 2284 3584 
Q 2666 3584 2933 3390 
Q 3200 3197 3328 2828 
z
" transform="scale(0.015625)"/>
       <path id="DejaVuSans-6c" d="M 603 4863 
L 1178 4863 
L 1178 0 
L 603 0 
L 603 4863 
z
" transform="scale(0.015625)"/>
       <path id="DejaVuSans-75" d="M 544 1381 
L 544 3500 
L 1119 3500 
L 1119 1403 
Q 1119 906 1312 657 
Q 1506 409 1894 409 
Q 2359 409 2629 706 
Q 2900 1003 2900 1516 
L 2900 3500 
L 3475 3500 
L 3475 0 
L 2900 0 
L 2900 538 
Q 2691 219 2414 64 
Q 2138 -91 1772 -91 
Q 1169 -91 856 284 
Q 544 659 544 1381 
z
M 1991 3584 
L 1991 3584 
z
" transform="scale(0.015625)"/>
      </defs>
      <use xlink:href="#DejaVuSans-41"/>
      <use xlink:href="#DejaVuSans-6d" transform="translate(68.408203 0)"/>
      <use xlink:href="#DejaVuSans-70" transform="translate(165.820312 0)"/>
      <use xlink:href="#DejaVuSans-6c" transform="translate(229.296875 0)"/>
      <use xlink:href="#DejaVuSans-69" transform="translate(257.080078 0)"/>
      <use xlink:href="#DejaVuSans-74" transform="translate(284.863281 0)"/>
      <use xlink:href="#DejaVuSans-75" transform="translate(324.072266 0)"/>
      <use xlink:href="#DejaVuSans-64" transform="translate(387.451172 0)"/>
     </g>
    </g>
   </g>
   <g id="line2d_29">
    <path d="M 60.960469 222.147188 
L 63.809341 202.860758 
L 66.658213 185.154283 
L 68.082649 177.348841 
L 69.507085 170.452601 
L 70.931521 164.596449 
L 72.355957 159.885591 
L 73.780394 156.39696 
L 75.20483 154.177325 
L 76.629266 153.242137 
L 78.053702 153.57516 
L 79.478138 155.128885 
L 80.902574 157.82571 
L 82.32701 161.559874 
L 83.751446 166.200084 
L 85.175882 171.592771 
L 88.024754 183.933244 
L 92.298063 203.423795 
L 93.722499 209.387494 
L 95.146935 214.768674 
L 96.571371 219.39695 
L 97.995807 223.1208 
L 99.420243 225.811324 
L 100.844679 227.365445 
L 102.269115 227.708466 
L 103.693551 226.79593 
L 105.117988 224.614728 
L 106.542424 221.183431 
L 107.96686 216.551843 
L 109.391296 210.799772 
L 110.815732 204.035067 
L 112.240168 196.39096 
L 115.08904 179.104074 
L 122.211221 133.041113 
L 123.635657 124.91292 
L 125.060093 117.571568 
L 126.484529 111.168215 
L 127.908965 105.831218 
L 129.333401 101.66296 
L 130.757837 98.737327 
L 132.182273 97.097883 
L 133.606709 96.756805 
L 135.031145 97.694583 
L 136.455582 99.860512 
L 137.880018 103.173953 
L 139.304454 107.526339 
L 140.72889 112.783861 
L 142.153326 118.790792 
L 145.002198 132.343978 
L 149.275506 153.601703 
L 150.699942 160.140721 
L 152.124379 166.091803 
L 153.548815 171.286108 
L 154.973251 175.574055 
L 156.397687 178.829028 
L 157.822123 180.950517 
L 159.246559 181.866607 
L 160.670995 181.535765 
L 162.095431 179.947874 
L 163.519867 177.124482 
L 164.944303 173.11828 
L 166.368739 168.011796 
L 167.793176 161.915363 
L 169.217612 154.964388 
L 172.066484 139.145199 
L 179.188664 97.259039 
L 180.6131 90.050027 
L 182.037536 83.652349 
L 183.461973 78.214831 
L 184.886409 73.863149 
L 186.310845 70.696723 
L 187.735281 68.786259 
L 189.159717 68.171998 
L 190.584153 68.862724 
L 192.008589 70.835552 
L 193.433025 74.036486 
L 194.857461 78.381768 
L 196.281897 83.759943 
L 197.706333 90.034623 
L 199.13077 97.047861 
L 201.979642 112.574319 
L 206.25295 136.680469 
L 207.677386 144.139168 
L 209.101822 150.996419 
L 210.526258 157.084884 
L 211.950694 162.256877 
L 213.37513 166.38802 
L 214.799566 169.380315 
L 216.224003 171.164574 
L 217.648439 171.702126 
L 219.072875 170.985772 
L 220.497311 169.039968 
L 221.921747 165.920209 
L 223.346183 161.711661 
L 224.770619 156.527049 
L 226.195055 150.503863 
L 229.043927 136.594616 
L 234.741672 106.617996 
L 236.166108 99.828355 
L 237.590544 93.69852 
L 239.01498 88.39477 
L 240.439416 84.063522 
L 241.863852 80.827709 
L 243.288288 78.783731 
L 244.712724 77.999065 
L 246.13716 78.510591 
L 247.561597 80.323677 
L 248.986033 83.412041 
L 250.410469 87.718394 
L 251.834905 93.155858 
L 253.259341 99.610106 
L 254.683777 106.942189 
L 257.532649 123.582078 
L 264.65483 167.798218 
L 266.079266 175.523047 
L 267.503702 182.457452 
L 268.928138 188.45569 
L 270.352574 193.395663 
L 271.77701 197.181929 
L 273.201446 199.748061 
L 274.625882 201.05828 
L 276.050318 201.108335 
L 277.474754 199.925605 
L 278.899191 197.568407 
L 280.323627 194.124553 
L 281.748063 189.709165 
L 283.172499 184.461819 
L 284.596935 178.543088 
L 287.445807 165.414408 
L 291.719115 145.43514 
L 293.143551 139.490425 
L 294.567988 134.212929 
L 295.992424 129.766928 
L 297.41686 126.296457 
L 298.841296 123.921735 
L 300.265732 122.736179 
L 301.690168 122.804089 
L 303.114604 124.159041 
L 304.53904 126.803057 
L 305.963476 130.706536 
L 307.387912 135.808984 
L 308.812348 142.020501 
L 310.236785 149.223995 
L 311.661221 157.278072 
L 314.510093 175.272343 
L 320.207837 213.459888 
L 323.056709 230.501473 
L 324.481145 237.875186 
L 325.905582 244.285822 
L 327.330018 249.613695 
L 328.754454 253.766048 
L 330.17889 256.679333 
L 331.603326 258.320783 
L 333.027762 258.689206 
L 334.452198 257.815006 
L 335.876634 255.759422 
L 337.30107 252.613004 
L 338.725506 248.493358 
L 340.149942 243.542232 
L 341.574379 237.921991 
L 344.423251 225.402161 
L 348.696559 206.372384 
L 350.120995 200.752143 
L 351.545431 195.801017 
L 352.969867 191.681371 
L 354.394303 188.534953 
L 355.818739 186.479369 
L 357.243176 185.605169 
L 358.667612 185.973592 
L 360.092048 187.615042 
L 361.516484 190.528327 
L 362.94092 194.68068 
L 364.365356 200.008553 
L 365.789792 206.419189 
L 367.214228 213.792902 
L 368.638664 221.986032 
L 371.487536 240.157798 
L 377.185281 278.273849 
L 380.034153 295.07038 
L 381.458589 302.273874 
L 382.883025 308.485391 
L 384.307461 313.587839 
L 385.731897 317.491318 
L 387.156333 320.135334 
L 388.58077 321.490286 
L 390.005206 321.558196 
L 391.429642 320.37264 
L 392.854078 317.997918 
L 394.278514 314.527447 
L 395.70295 310.081446 
L 397.127386 304.80395 
L 398.551822 298.859235 
L 401.400694 285.701634 
L 405.674003 265.751287 
L 407.098439 259.832556 
L 408.522875 254.58521 
L 409.947311 250.169822 
L 411.371747 246.725968 
L 412.796183 244.36877 
L 414.220619 243.18604 
L 415.645055 243.236095 
L 417.069491 244.546314 
L 418.493927 247.112446 
L 419.918363 250.898712 
L 421.3428 255.838685 
L 422.767236 261.836923 
L 424.191672 268.771328 
L 425.616108 276.496157 
L 428.46498 293.638008 
L 434.162724 329.302406 
L 435.58716 337.352186 
L 437.011597 344.684269 
L 438.436033 351.138517 
L 439.860469 356.575981 
L 441.284905 360.882334 
L 442.709341 363.970698 
L 444.133777 365.783784 
L 445.558213 366.29531 
L 446.982649 365.510644 
L 448.407085 363.466666 
L 449.831521 360.230853 
L 451.255957 355.899605 
L 452.680394 350.595855 
L 454.10483 344.46602 
L 456.953702 330.408951 
L 462.651446 300.493417 
L 464.075882 293.790512 
L 465.500318 287.767326 
L 466.924754 282.582714 
L 468.349191 278.374166 
L 469.773627 275.254407 
L 471.198063 273.308603 
L 472.622499 272.592249 
L 474.046935 273.129801 
L 475.471371 274.91406 
L 476.895807 277.906355 
L 478.320243 282.037498 
L 479.744679 287.209491 
L 481.169115 293.297956 
L 482.593551 300.155207 
L 485.442424 315.491203 
L 489.715732 339.670316 
L 492.564604 354.259752 
L 493.98904 360.534432 
L 495.413476 365.912607 
L 496.837912 370.257889 
L 498.262348 373.458823 
L 499.686785 375.431651 
L 501.111221 376.122377 
L 502.535657 375.508116 
L 503.960093 373.597652 
L 505.384529 370.431226 
L 506.808965 366.079544 
L 508.233401 360.642026 
L 509.657837 354.244348 
L 511.082273 347.035336 
L 513.931145 330.871794 
L 519.62889 296.978368 
L 521.053326 289.329987 
L 522.477762 282.379012 
L 523.902198 276.282579 
L 525.326634 271.176095 
L 526.75107 267.169893 
L 528.175506 264.346501 
L 529.599942 262.75861 
L 531.024379 262.427768 
L 532.448815 263.343858 
L 533.873251 265.465347 
L 535.297687 268.72032 
L 536.722123 273.008267 
L 538.146559 278.202572 
L 539.570995 284.153654 
L 542.419867 297.635709 
L 546.693176 318.921031 
L 548.117612 325.503583 
L 549.542048 331.510514 
L 550.966484 336.768036 
L 552.39092 341.120422 
L 553.815356 344.433863 
L 555.239792 346.599792 
L 556.664228 347.53757 
L 558.088664 347.196492 
L 559.5131 345.557048 
L 560.937536 342.631415 
L 562.361973 338.463157 
L 563.786409 333.12616 
L 565.210845 326.722807 
L 566.635281 319.381455 
L 569.484153 302.508458 
L 578.03077 247.903415 
L 579.455206 240.259308 
L 580.879642 233.494603 
L 582.304078 227.742532 
L 583.728514 223.110944 
L 585.15295 219.679647 
L 586.577386 217.498445 
L 588.001822 216.585909 
L 589.426258 216.92893 
L 590.850694 218.483051 
L 592.27513 221.173575 
L 593.699566 224.897425 
L 595.124003 229.525701 
L 596.548439 234.906881 
L 599.397311 247.231772 
L 603.670619 266.728474 
L 605.095055 272.701604 
L 606.519491 278.094291 
L 607.943927 282.734501 
L 609.368363 286.468665 
L 610.7928 289.16549 
L 612.217236 290.719215 
L 613.641672 291.052238 
L 615.066108 290.11705 
L 616.490544 287.897415 
L 617.91498 284.408784 
L 619.339416 279.697926 
L 620.763852 273.841774 
L 622.188288 266.945534 
L 623.612724 259.140092 
L 626.461597 241.433617 
L 629.310469 222.147188 
L 629.310469 222.147188 
" clip-path="url(#p06682d79c5)" style="fill: none; stroke: #000000; stroke-opacity: 0.8; stroke-width: 1.2; stroke-linecap: round"/>
   </g>
   <g id="line2d_30">
    <path d="M 60.960469 221.17794 
L 63.809341 200.199804 
L 65.233777 191.471381 
L 68.082649 175.744373 
L 72.355957 160.022075 
L 73.780394 156.503297 
L 75.20483 153.526751 
L 76.629266 152.382968 
L 78.053702 153.310097 
L 79.478138 155.238237 
L 80.902574 158.067991 
L 82.32701 161.554328 
L 83.751446 165.846238 
L 88.024754 182.953093 
L 89.449191 189.0652 
L 92.298063 202.368911 
L 93.722499 209.744642 
L 95.146935 215.485196 
L 96.571371 219.924513 
L 97.995807 222.8928 
L 100.844679 226.15737 
L 102.269115 226.225078 
L 103.693551 225.240407 
L 105.117988 223.557704 
L 106.542424 220.223052 
L 110.815732 203.347059 
L 112.240168 196.03638 
L 113.664604 187.618715 
L 116.513476 168.56211 
L 119.362348 151.161809 
L 122.211221 132.209998 
L 125.060093 116.474577 
L 126.484529 109.637676 
L 127.908965 104.720642 
L 129.333401 101.222358 
L 130.757837 98.399255 
L 132.182273 96.69245 
L 133.606709 96.175456 
L 135.031145 96.727587 
L 136.455582 98.494905 
L 137.880018 101.553886 
L 139.304454 105.964472 
L 140.72889 111.552674 
L 146.426634 141.472956 
L 149.275506 152.797149 
L 150.699942 158.703355 
L 153.548815 172.424102 
L 154.973251 177.785898 
L 156.397687 180.673545 
L 157.822123 182.260921 
L 159.246559 182.015777 
L 160.670995 180.499033 
L 162.095431 178.800177 
L 163.519867 175.901911 
L 164.944303 172.040748 
L 166.368739 167.534307 
L 167.793176 161.569699 
L 169.217612 154.649452 
L 172.066484 138.856915 
L 174.915356 121.496842 
L 176.339792 111.824304 
L 177.764228 103.123214 
L 179.188664 95.514449 
L 180.6131 89.148857 
L 183.461973 78.681712 
L 184.886409 74.033385 
L 186.310845 70.312515 
L 187.735281 68.733461 
L 189.159717 69.056573 
L 190.584153 70.19838 
L 192.008589 71.631307 
L 193.433025 74.969242 
L 194.857461 79.357777 
L 196.281897 84.903599 
L 197.706333 91.41853 
L 201.979642 113.038537 
L 204.828514 128.423694 
L 206.25295 135.403848 
L 209.101822 150.842029 
L 210.526258 157.140691 
L 211.950694 162.184893 
L 213.37513 166.819478 
L 214.799566 169.842105 
L 216.224003 171.157632 
L 217.648439 171.371696 
L 219.072875 170.126897 
L 220.497311 168.580823 
L 221.921747 165.843214 
L 223.346183 161.395447 
L 227.619491 142.585262 
L 230.468363 128.226001 
L 231.8928 120.265314 
L 233.317236 113.115361 
L 236.166108 99.899252 
L 237.590544 92.869972 
L 239.01498 87.224492 
L 240.439416 83.30271 
L 243.288288 78.53219 
L 244.712724 77.807908 
L 246.13716 78.623217 
L 247.561597 81.318077 
L 248.986033 85.048159 
L 250.410469 89.739775 
L 251.834905 95.067764 
L 253.259341 101.133957 
L 254.683777 108.188292 
L 257.532649 124.247646 
L 261.805957 150.751311 
L 263.230394 160.157106 
L 264.65483 168.04987 
L 268.928138 188.549191 
L 270.352574 194.333021 
L 271.77701 198.291778 
L 273.201446 200.836827 
L 274.625882 202.931317 
L 276.050318 202.893082 
L 277.474754 200.879163 
L 278.899191 197.957934 
L 280.323627 193.771825 
L 281.748063 188.982305 
L 284.596935 177.312898 
L 288.870243 158.256902 
L 290.294679 152.683731 
L 291.719115 146.228545 
L 293.143551 139.158348 
L 294.567988 133.801409 
L 295.992424 129.946702 
L 297.41686 126.827369 
L 298.841296 124.465131 
L 300.265732 123.066749 
L 301.690168 122.36205 
L 303.114604 123.708683 
L 304.53904 126.085364 
L 305.963476 130.02868 
L 307.387912 135.465669 
L 308.812348 142.187124 
L 311.661221 158.389133 
L 313.085657 167.133975 
L 315.934529 186.867023 
L 317.358965 197.148441 
L 318.783401 206.351739 
L 323.056709 230.862945 
L 324.481145 238.267148 
L 325.905582 244.832853 
L 327.330018 250.480627 
L 328.754454 255.208069 
L 330.17889 257.935525 
L 331.603326 258.959084 
L 333.027762 258.842467 
L 334.452198 257.294828 
L 335.876634 255.069703 
L 337.30107 252.01679 
L 338.725506 248.097843 
L 340.149942 243.395802 
L 341.574379 237.938217 
L 344.423251 226.102518 
L 345.847687 220.840792 
L 347.272123 214.080099 
L 348.696559 206.164166 
L 350.120995 200.570393 
L 351.545431 195.904732 
L 352.969867 192.082003 
L 354.394303 189.4023 
L 355.818739 187.806735 
L 357.243176 187.308935 
L 358.667612 187.708678 
L 360.092048 189.254376 
L 361.516484 192.435818 
L 362.94092 197.164059 
L 368.638664 223.574899 
L 370.0631 231.977125 
L 374.336409 259.202719 
L 377.185281 280.256311 
L 378.609717 289.794431 
L 380.034153 297.462523 
L 381.458589 304.098212 
L 382.883025 309.873264 
L 384.307461 315.042595 
L 385.731897 318.864504 
L 387.156333 321.09459 
L 388.58077 322.650057 
L 390.005206 322.40374 
L 391.429642 320.876233 
L 392.854078 318.455441 
L 394.278514 315.459465 
L 395.70295 311.233602 
L 397.127386 306.109921 
L 398.551822 300.514758 
L 399.976258 294.430531 
L 401.400694 287.117492 
L 404.249566 271.435197 
L 407.098439 259.769773 
L 408.522875 254.211741 
L 409.947311 250.180417 
L 412.796183 245.055473 
L 414.220619 243.343392 
L 415.645055 243.375589 
L 417.069491 245.519097 
L 418.493927 248.293339 
L 419.918363 252.689536 
L 422.767236 263.920083 
L 424.191672 270.513567 
L 425.616108 278.32494 
L 428.46498 295.60119 
L 432.738288 322.260292 
L 435.58716 338.488563 
L 437.011597 345.635218 
L 438.436033 351.931164 
L 439.860469 357.054658 
L 441.284905 361.058685 
L 442.709341 364.380104 
L 444.133777 366.84613 
L 445.558213 367.660893 
L 446.982649 366.444806 
L 448.407085 364.046868 
L 449.831521 360.954987 
L 451.255957 356.569029 
L 452.680394 350.794257 
L 455.529266 337.466792 
L 461.22701 306.36197 
L 464.075882 294.550317 
L 465.500318 289.721665 
L 466.924754 284.354583 
L 468.349191 279.620385 
L 469.773627 276.732437 
L 471.198063 274.281213 
L 472.622499 272.982752 
L 474.046935 274.140713 
L 475.471371 276.770354 
L 476.895807 280.454846 
L 478.320243 284.481911 
L 479.744679 289.483957 
L 481.169115 295.01671 
L 484.017988 308.313312 
L 486.86686 323.75 
L 489.715732 340.269612 
L 491.140168 348.06994 
L 493.98904 361.756121 
L 495.413476 366.917487 
L 496.837912 370.819767 
L 498.262348 373.809981 
L 499.686785 375.921694 
L 501.111221 376.38953 
L 502.535657 375.44225 
L 503.960093 373.434212 
L 505.384529 370.294065 
L 506.808965 365.611106 
L 508.233401 359.914643 
L 509.657837 353.618103 
L 512.506709 339.261593 
L 513.931145 331.235346 
L 518.204454 305.755296 
L 519.62889 297.506006 
L 521.053326 290.23841 
L 523.902198 278.019197 
L 525.326634 272.0467 
L 526.75107 266.92769 
L 528.175506 263.529989 
L 529.599942 261.925171 
L 531.024379 261.982581 
L 532.448815 263.445071 
L 533.873251 266.578213 
L 535.297687 269.995826 
L 536.722123 273.923326 
L 538.146559 279.43942 
L 539.570995 285.512067 
L 542.419867 299.222146 
L 543.844303 306.458689 
L 545.268739 312.808026 
L 548.117612 327.341582 
L 549.542048 333.339511 
L 550.966484 338.297329 
L 552.39092 342.392614 
L 553.815356 345.980935 
L 555.239792 348.017179 
L 556.664228 348.226463 
L 558.088664 347.775447 
L 559.5131 346.151249 
L 560.937536 342.75569 
L 562.361973 338.21445 
L 563.786409 333.090039 
L 565.210845 326.887293 
L 566.635281 318.597756 
L 569.484153 303.807346 
L 576.606333 254.612485 
L 578.03077 246.551542 
L 582.304078 228.121902 
L 583.728514 223.426788 
L 585.15295 219.643208 
L 586.577386 218.198111 
L 588.001822 217.708376 
L 589.426258 217.88299 
L 590.850694 219.921278 
L 592.27513 222.658233 
L 595.124003 229.707928 
L 596.548439 234.27468 
L 597.972875 239.908659 
L 599.397311 247.079436 
L 602.246183 262.042921 
L 603.670619 268.219986 
L 605.095055 273.405694 
L 606.519491 278.095443 
L 607.943927 282.184177 
L 610.7928 287.842035 
L 612.217236 289.552827 
L 613.641672 290.566805 
L 615.066108 289.34726 
L 616.490544 287.012284 
L 617.91498 283.717488 
L 619.339416 279.536412 
L 620.763852 274.334394 
L 622.188288 267.798344 
L 623.612724 260.048387 
L 629.310469 221.17794 
L 629.310469 221.17794 
" clip-path="url(#p06682d79c5)" style="fill: none; stroke: #d32f2f; stroke-opacity: 0.85; stroke-width: 2; stroke-linecap: round"/>
   </g>
   <g id="patch_3">
    <path d="M 60.960469 408.417188 
L 60.960469 35.877187 
" style="fill: none; stroke: #cccccc; stroke-width: 1.25; stroke-linejoin: miter; stroke-linecap: square"/>
   </g>
   <g id="patch_4">
    <path d="M 629.310469 408.417188 
L 629.310469 35.877187 
" style="fill: none; stroke: #cccccc; stroke-width: 1.25; stroke-linejoin: miter; stroke-linecap: square"/>
   </g>
   <g id="patch_5">
    <path d="M 60.960469 408.417188 
L 629.310469 408.417188 
" style="fill: none; stroke: #cccccc; stroke-width: 1.25; stroke-linejoin: miter; stroke-linecap: square"/>
   </g>
   <g id="patch_6">
    <path d="M 60.960469 35.877187 
L 629.310469 35.877187 
" style="fill: none; stroke: #cccccc; stroke-width: 1.25; stroke-linejoin: miter; stroke-linecap: square"/>
   </g>
   <g id="text_17">
    <!-- Corrección con Fourier Features -->
    <g style="fill: #262626" transform="translate(202.229531 20.877187) scale(0.18 -0.18)">
     <defs>
      <path id="DejaVuSans-43" d="M 4122 4306 
L 4122 3641 
Q 3803 3938 3442 4084 
Q 3081 4231 2675 4231 
Q 1875 4231 1450 3742 
Q 1025 3253 1025 2328 
Q 1025 1406 1450 917 
Q 1875 428 2675 428 
Q 3081 428 3442 575 
Q 3803 722 4122 1019 
L 4122 359 
Q 3791 134 3420 21 
Q 3050 -91 2638 -91 
Q 1578 -91 968 557 
Q 359 1206 359 2328 
Q 359 3453 968 4101 
Q 1578 4750 2638 4750 
Q 3056 4750 3426 4639 
Q 3797 4528 4122 4306 
z
" transform="scale(0.015625)"/>
      <path id="DejaVuSans-f3" d="M 1959 3097 
Q 1497 3097 1228 2736 
Q 959 2375 959 1747 
Q 959 1119 1226 758 
Q 1494 397 1959 397 
Q 2419 397 2687 759 
Q 2956 1122 2956 1747 
Q 2956 2369 2687 2733 
Q 2419 3097 1959 3097 
z
M 1959 3584 
Q 2709 3584 3137 3096 
Q 3566 2609 3566 1747 
Q 3566 888 3137 398 
Q 2709 -91 1959 -91 
Q 1206 -91 779 398 
Q 353 888 353 1747 
Q 353 2609 779 3096 
Q 1206 3584 1959 3584 
z
M 2394 5119 
L 3016 5119 
L 1998 3944 
L 1519 3944 
L 2394 5119 
z
" transform="scale(0.015625)"/>
      <path id="DejaVuSans-46" d="M 628 4666 
L 3309 4666 
L 3309 4134 
L 1259 4134 
L 1259 2759 
L 3109 2759 
L 3109 2228 
L 1259 2228 
L 1259 0 
L 628 0 
L 628 4666 
z
" transform="scale(0.015625)"/>
     </defs>
     <use xlink:href="#DejaVuSans-43"/>
     <use xlink:href="#DejaVuSans-6f" transform="translate(69.824219 0)"/>
     <use xlink:href="#DejaVuSans-72" transform="translate(131.005859 0)"/>
     <use xlink:href="#DejaVuSans-72" transform="translate(170.369141 0)"/>
     <use xlink:href="#DejaVuSans-65" transform="translate(209.232422 0)"/>
     <use xlink:href="#DejaVuSans-63" transform="translate(270.755859 0)"/>
     <use xlink:href="#DejaVuSans-63" transform="translate(325.736328 0)"/>
     <use xlink:href="#DejaVuSans-69" transform="translate(380.716797 0)"/>
     <use xlink:href="#DejaVuSans-f3" transform="translate(408.5 0)"/>
     <use xlink:href="#DejaVuSans-6e" transform="translate(469.681641 0)"/>
     <use xlink:href="#DejaVuSans-20" transform="translate(533.060547 0)"/>
     <use xlink:href="#DejaVuSans-63" transform="translate(564.847656 0)"/>
     <use xlink:href="#DejaVuSans-6f" transform="translate(619.828125 0)"/>
     <use xlink:href="#DejaVuSans-6e" transform="translate(681.009766 0)"/>
     <use xlink:href="#DejaVuSans-20" transform="translate(744.388672 0)"/>
     <use xlink:href="#DejaVuSans-46" transform="translate(776.175781 0)"/>
     <use xlink:href="#DejaVuSans-6f" transform="translate(830.070312 0)"/>
     <use xlink:href="#DejaVuSans-75" transform="translate(891.251953 0)"/>
     <use xlink:href="#DejaVuSans-72" transform="translate(954.630859 0)"/>
     <use xlink:href="#DejaVuSans-69" transform="translate(995.744141 0)"/>
     <use xlink:href="#DejaVuSans-65" transform="translate(1023.527344 0)"/>
     <use xlink:href="#DejaVuSans-72" transform="translate(1085.050781 0)"/>
     <use xlink:href="#DejaVuSans-20" transform="translate(1126.164062 0)"/>
     <use xlink:href="#DejaVuSans-46" transform="translate(1157.951172 0)"/>
     <use xlink:href="#DejaVuSans-65" transform="translate(1209.970703 0)"/>
     <use xlink:href="#DejaVuSans-61" transform="translate(1271.494141 0)"/>
     <use xlink:href="#DejaVuSans-74" transform="translate(1332.773438 0)"/>
     <use xlink:href="#DejaVuSans-75" transform="translate(1371.982422 0)"/>
     <use xlink:href="#DejaVuSans-72" transform="translate(1435.361328 0)"/>
     <use xlink:href="#DejaVuSans-65" transform="translate(1474.224609 0)"/>
     <use xlink:href="#DejaVuSans-73" transform="translate(1535.748047 0)"/>
    </g>
   </g>
   <g id="legend_1">
    <g id="patch_7">
     <path d="M 71.360469 404.417188 
L 297.834219 404.417188 
Q 300.234219 404.417188 300.234219 402.017188 
L 300.234219 367.483438 
Q 300.234219 365.083438 297.834219 365.083438 
L 71.360469 365.083438 
Q 68.960469 365.083438 68.960469 367.483438 
L 68.960469 402.017188 
Q 68.960469 404.417188 71.360469 404.417188 
z
" style="fill: #4d4d4d; opacity: 0.5; stroke: #4d4d4d; stroke-linejoin: miter"/>
    </g>
    <g id="patch_8">
     <path d="M 69.360469 402.417188 
L 295.834219 402.417188 
Q 298.234219 402.417188 298.234219 400.017188 
L 298.234219 365.483438 
Q 298.234219 363.083438 295.834219 363.083438 
L 69.360469 363.083438 
Q 66.960469 363.083438 66.960469 365.483438 
L 66.960469 400.017188 
Q 66.960469 402.417188 69.360469 402.417188 
z
" style="fill: #ffffff; stroke: #cccccc; stroke-linejoin: miter"/>
    </g>
    <g id="line2d_31">
     <path d="M 71.760469 373.283438 
L 83.760469 373.283438 
L 95.760469 373.283438 
" style="fill: none; stroke: #000000; stroke-opacity: 0.8; stroke-width: 1.2; stroke-linecap: round"/>
    </g>
    <g id="text_18">
     <!-- Función Objetivo $f(x)$ -->
     <g style="fill: #262626" transform="translate(105.360469 377.483438) scale(0.12 -0.12)">
      <defs>
       <path id="DejaVuSans-4f" d="M 2522 4238 
Q 1834 4238 1429 3725 
Q 1025 3213 1025 2328 
Q 1025 1447 1429 934 
Q 1834 422 2522 422 
Q 3209 422 3611 934 
Q 4013 1447 4013 2328 
Q 4013 3213 3611 3725 
Q 3209 4238 2522 4238 
z
M 2522 4750 
Q 3503 4750 4090 4092 
Q 4678 3434 4678 2328 
Q 4678 1225 4090 567 
Q 3503 -91 2522 -91 
Q 1538 -91 948 565 
Q 359 1222 359 2328 
Q 359 3434 948 4092 
Q 1538 4750 2522 4750 
z
" transform="scale(0.015625)"/>
       <path id="DejaVuSans-62" d="M 3116 1747 
Q 3116 2381 2855 2742 
Q 2594 3103 2138 3103 
Q 1681 3103 1420 2742 
Q 1159 2381 1159 1747 
Q 1159 1113 1420 752 
Q 1681 391 2138 391 
Q 2594 391 2855 752 
Q 3116 1113 3116 1747 
z
M 1159 2969 
Q 1341 3281 1617 3432 
Q 1894 3584 2278 3584 
Q 2916 3584 3314 3078 
Q 3713 2572 3713 1747 
Q 3713 922 3314 415 
Q 2916 -91 2278 -91 
Q 1894 -91 1617 61 
Q 1341 213 1159 525 
L 1159 0 
L 581 0 
L 581 4863 
L 1159 4863 
L 1159 2969 
z
" transform="scale(0.015625)"/>
       <path id="DejaVuSans-6a" d="M 603 3500 
L 1178 3500 
L 1178 -63 
Q 1178 -731 923 -1031 
Q 669 -1331 103 -1331 
L -116 -1331 
L -116 -844 
L 38 -844 
Q 366 -844 484 -692 
Q 603 -541 603 -63 
L 603 3500 
z
M 603 4863 
L 1178 4863 
L 1178 4134 
L 603 4134 
L 603 4863 
z
" transform="scale(0.015625)"/>
       <path id="DejaVuSans-76" d="M 191 3500 
L 800 3500 
L 1894 563 
L 2988 3500 
L 3597 3500 
L 2284 0 
L 1503 0 
L 191 3500 
z
" transform="scale(0.015625)"/>
       <path id="DejaVuSans-Oblique-66" d="M 3059 4863 
L 2969 4384 
L 2419 4384 
Q 2106 4384 1964 4261 
Q 1822 4138 1753 3809 
L 1691 3500 
L 2638 3500 
L 2553 3053 
L 1606 3053 
L 1013 0 
L 434 0 
L 1031 3053 
L 481 3053 
L 563 3500 
L 1113 3500 
L 1159 3744 
Q 1278 4363 1576 4613 
Q 1875 4863 2516 4863 
L 3059 4863 
z
" transform="scale(0.015625)"/>
       <path id="DejaVuSans-28" d="M 1984 4856 
Q 1566 4138 1362 3434 
Q 1159 2731 1159 2009 
Q 1159 1288 1364 580 
Q 1569 -128 1984 -844 
L 1484 -844 
Q 1016 -109 783 600 
Q 550 1309 550 2009 
Q 550 2706 781 3412 
Q 1013 4119 1484 4856 
L 1984 4856 
z
" transform="scale(0.015625)"/>
       <path id="DejaVuSans-29" d="M 513 4856 
L 1013 4856 
Q 1481 4119 1714 3412 
Q 1947 2706 1947 2009 
Q 1947 1309 1714 600 
Q 1481 -109 1013 -844 
L 513 -844 
Q 928 -128 1133 580 
Q 1338 1288 1338 2009 
Q 1338 2731 1133 3434 
Q 928 4138 513 4856 
z
" transform="scale(0.015625)"/>
      </defs>
      <use xlink:href="#DejaVuSans-46" transform="translate(0 0.015625)"/>
      <use xlink:href="#DejaVuSans-75" transform="translate(57.519531 0.015625)"/>
      <use xlink:href="#DejaVuSans-6e" transform="translate(120.898438 0.015625)"/>
      <use xlink:href="#DejaVuSans-63" transform="translate(184.277344 0.015625)"/>
      <use xlink:href="#DejaVuSans-69" transform="translate(239.257812 0.015625)"/>
      <use xlink:href="#DejaVuSans-f3" transform="translate(267.041016 0.015625)"/>
      <use xlink:href="#DejaVuSans-6e" transform="translate(328.222656 0.015625)"/>
      <use xlink:href="#DejaVuSans-20" transform="translate(391.601562 0.015625)"/>
      <use xlink:href="#DejaVuSans-4f" transform="translate(423.388672 0.015625)"/>
      <use xlink:href="#DejaVuSans-62" transform="translate(502.099609 0.015625)"/>
      <use xlink:href="#DejaVuSans-6a" transform="translate(565.576172 0.015625)"/>
      <use xlink:href="#DejaVuSans-65" transform="translate(593.359375 0.015625)"/>
      <use xlink:href="#DejaVuSans-74" transform="translate(654.882812 0.015625)"/>
      <use xlink:href="#DejaVuSans-69" transform="translate(694.091797 0.015625)"/>
      <use xlink:href="#DejaVuSans-76" transform="translate(721.875 0.015625)"/>
      <use xlink:href="#DejaVuSans-6f" transform="translate(781.054688 0.015625)"/>
      <use xlink:href="#DejaVuSans-20" transform="translate(842.236328 0.015625)"/>
      <use xlink:href="#DejaVuSans-Oblique-66" transform="translate(874.023438 0.015625)"/>
      <use xlink:href="#DejaVuSans-28" transform="translate(909.228516 0.015625)"/>
      <use xlink:href="#DejaVuSans-Oblique-78" transform="translate(948.242188 0.015625)"/>
      <use xlink:href="#DejaVuSans-29" transform="translate(1007.421875 0.015625)"/>
     </g>
    </g>
    <g id="line2d_32">
     <path d="M 71.760469 390.921563 
L 83.760469 390.921563 
L 95.760469 390.921563 
" style="fill: none; stroke: #d32f2f; stroke-opacity: 0.85; stroke-width: 2; stroke-linecap: round"/>
    </g>
    <g id="text_19">
     <!-- Predicción con Fourier Features -->
     <g style="fill: #262626" transform="translate(105.360469 395.121563) scale(0.12 -0.12)">
      <defs>
       <path id="DejaVuSans-50" d="M 1259 4147 
L 1259 2394 
L 2053 2394 
Q 2494 2394 2734 2622 
Q 2975 2850 2975 3272 
Q 2975 3691 2734 3919 
Q 2494 4147 2053 4147 
L 1259 4147 
z
M 628 4666 
L 2053 4666 
Q 2838 4666 3239 4311 
Q 3641 3956 3641 3272 
Q 3641 2581 3239 2228 
Q 2838 1875 2053 1875 
L 1259 1875 
L 1259 0 
L 628 0 
L 628 4666 
z
" transform="scale(0.015625)"/>
      </defs>
      <use xlink:href="#DejaVuSans-50"/>
      <use xlink:href="#DejaVuSans-72" transform="translate(58.552734 0)"/>
      <use xlink:href="#DejaVuSans-65" transform="translate(97.416016 0)"/>
      <use xlink:href="#DejaVuSans-64" transform="translate(158.939453 0)"/>
      <use xlink:href="#DejaVuSans-69" transform="translate(222.416016 0)"/>
      <use xlink:href="#DejaVuSans-63" transform="translate(250.199219 0)"/>
      <use xlink:href="#DejaVuSans-63" transform="translate(305.179688 0)"/>
      <use xlink:href="#DejaVuSans-69" transform="translate(360.160156 0)"/>
      <use xlink:href="#DejaVuSans-f3" transform="translate(387.943359 0)"/>
      <use xlink:href="#DejaVuSans-6e" transform="translate(449.125 0)"/>
      <use xlink:href="#DejaVuSans-20" transform="translate(512.503906 0)"/>
      <use xlink:href="#DejaVuSans-63" transform="translate(544.291016 0)"/>
      <use xlink:href="#DejaVuSans-6f" transform="translate(599.271484 0)"/>
      <use xlink:href="#DejaVuSans-6e" transform="translate(660.453125 0)"/>
      <use xlink:href="#DejaVuSans-20" transform="translate(723.832031 0)"/>
      <use xlink:href="#DejaVuSans-46" transform="translate(755.619141 0)"/>
      <use xlink:href="#DejaVuSans-6f" transform="translate(809.513672 0)"/>
      <use xlink:href="#DejaVuSans-75" transform="translate(870.695312 0)"/>
      <use xlink:href="#DejaVuSans-72" transform="translate(934.074219 0)"/>
      <use xlink:href="#DejaVuSans-69" transform="translate(975.1875 0)"/>
      <use xlink:href="#DejaVuSans-65" transform="translate(1002.970703 0)"/>
      <use xlink:href="#DejaVuSans-72" transform="translate(1064.494141 0)"/>
      <use xlink:href="#DejaVuSans-20" transform="translate(1105.607422 0)"/>
      <use xlink:href="#DejaVuSans-46" transform="translate(1137.394531 0)"/>
      <use xlink:href="#DejaVuSans-65" transform="translate(1189.414062 0)"/>
      <use xlink:href="#DejaVuSans-61" transform="translate(1250.9375 0)"/>
      <use xlink:href="#DejaVuSans-74" transform="translate(1312.216797 0)"/>
      <use xlink:href="#DejaVuSans-75" transform="translate(1351.425781 0)"/>
      <use xlink:href="#DejaVuSans-72" transform="translate(1414.804688 0)"/>
      <use xlink:href="#DejaVuSans-65" transform="translate(1453.667969 0)"/>
      <use xlink:href="#DejaVuSans-73" transform="translate(1515.191406 0)"/>
     </g>
    </g>
   </g>
  </g>
 </g>
 <defs>
  <clipPath id="p06682d79c5">
   <rect x="60.960469" y="35.877187" width="568.35" height="372.54"/>
  </clipPath>
 </defs>
</svg>
